KdamThmorPro-Regular.ufo
<glyph name="numbersign" format="2">
	<advance width="654"/>
	<unicode hex="0023"/>
	<outline>
		<contour>
			<point x="170" y="0" type="line"/>
			<point x="78" y="0" type="line"/>
			<point x="232" y="799" type="line"/>
			<point x="322" y="799" type="line"/>
		</contour>
		<contour>
			<point x="422" y="0" type="line"/>
			<point x="330" y="0" type="line"/>
			<point x="483" y="799" type="line"/>
			<point x="574" y="799" type="line"/>
		</contour>
		<contour>
			<point x="634" y="508" type="line"/>
			<point x="79" y="508" type="line"/>
			<point x="79" y="596" type="line"/>
			<point x="634" y="596" type="line"/>
		</contour>
		<contour>
			<point x="575" y="204" type="line"/>
			<point x="20" y="204" type="line"/>
			<point x="20" y="292" type="line"/>
			<point x="575" y="292" type="line"/>
		</contour>
	</outline>
</glyph>
<glyph name="parenleft" format="2">
	<advance width="353"/>
	<unicode hex="0028"/>
	<outline>
		<contour>
			<point x="262" y="-212" type="curve" smooth="yes"/>
			<point x="328" y="-212" type="line"/>
			<point x="328" y="-119" type="line"/>
			<point x="212" y="-119" type="line" smooth="yes"/>
			<point x="203" y="-119"/>
			<point x="199" y="-115"/>
			<point x="199" y="-106" type="curve" smooth="yes"/>
			<point x="199" y="742" type="line" smooth="yes"/>
			<point x="199" y="752"/>
			<point x="203" y="756"/>
			<point x="212" y="756" type="curve" smooth="yes"/>
			<point x="328" y="756" type="line"/>
			<point x="328" y="849" type="line"/>
			<point x="262" y="849" type="line" smooth="yes"/>
			<point x="138" y="849"/>
			<point x="74" y="794"/>
			<point x="74" y="680" type="curve" smooth="yes"/>
			<point x="74" y="-44" type="line" smooth="yes"/>
			<point x="74" y="-157"/>
			<point x="138" y="-212"/>
		</contour>
	</outline>
</glyph>
<glyph name="asterisk" format="2">
	<advance width="452"/>
	<unicode hex="002A"/>
	<outline>
		<contour>
			<point x="148" y="473" type="line"/>
			<point x="191" y="534" type="line"/>
			<point x="221" y="610" type="line"/>
			<point x="191" y="631" type="line"/>
			<point x="129" y="579" type="line"/>
			<point x="85" y="518" type="line"/>
		</contour>
		<contour>
			<point x="306" y="474" type="line"/>
			<point x="367" y="519" type="line"/>
			<point x="323" y="579" type="line"/>
			<point x="260" y="631" type="line"/>
			<point x="231" y="611" type="line"/>
			<point x="261" y="534" type="line"/>
		</contour>
		<contour>
			<point x="263" y="640" type="line"/>
			<point x="343" y="644" type="line"/>
			<point x="415" y="668" type="line"/>
			<point x="391" y="741" type="line"/>
			<point x="320" y="717" type="line"/>
			<point x="252" y="674" type="line"/>
		</contour>
		<contour>
			<point x="208" y="680" type="line"/>
			<point x="244" y="680" type="line"/>
			<point x="264" y="758" type="line"/>
			<point x="264" y="833" type="line"/>
			<point x="186" y="833" type="line"/>
			<point x="186" y="757" type="line"/>
		</contour>
		<contour>
			<point x="107" y="644" type="line"/>
			<point x="187" y="640" type="line"/>
			<point x="200" y="674" type="line"/>
			<point x="131" y="717" type="line"/>
			<point x="60" y="740" type="line"/>
			<point x="37" y="667" type="line"/>
		</contour>
	</outline>
</glyph>
<glyph name="plus" format="2">
	<advance width="669"/>
	<unicode hex="002B"/>
	<outline>
		<contour>
			<point x="601" y="327" type="line"/>
			<point x="601" y="417" type="line"/>
			<point x="68" y="417" type="line"/>
			<point x="68" y="327" type="line"/>
		</contour>
		<contour>
			<point x="287" y="113" type="line"/>
			<point x="382" y="113" type="line"/>
			<point x="382" y="632" type="line"/>
			<point x="287" y="632" type="line"/>
		</contour>
	</outline>
</glyph>
<glyph name="comma" format="2">
	<advance width="223"/>
	<unicode hex="002C"/>
	<outline>
		<contour>
			<point x="101" y="2" type="line"/>
			<point x="51" y="2" type="line"/>
			<point x="51" y="141" type="line"/>
			<point x="167" y="141" type="line"/>
			<point x="167" y="24" type="line" smooth="yes"/>
			<point x="167" y="-32"/>
			<point x="140" y="-87"/>
			<point x="93" y="-134" type="curve"/>
			<point x="53" y="-102" type="line"/>
			<point x="80" y="-60"/>
			<point x="92" y="-17"/>
			<point x="92" y="9" type="curve"/>
		</contour>
	</outline>
</glyph>
<glyph name="hyphen" format="2">
	<advance width="402"/>
	<unicode hex="002D"/>
	<outline>
		<contour>
			<point x="365" y="308" type="line"/>
			<point x="365" y="407" type="line"/>
			<point x="37" y="407" type="line"/>
			<point x="37" y="308" type="line"/>
		</contour>
	</outline>
</glyph>
<glyph name="two" format="2">
	<advance width="580"/>
	<unicode hex="0032"/>
	<outline>
		<contour>
			<point x="158" y="383" type="line" smooth="yes"/>
			<point x="87" y="347"/>
			<point x="53" y="329"/>
			<point x="53" y="236" type="curve" smooth="yes"/>
			<point x="53" y="0" type="line"/>
			<point x="530" y="0" type="line"/>
			<point x="530" y="109" type="line"/>
			<point x="179" y="109" type="line"/>
			<point x="179" y="236" type="line" smooth="yes"/>
			<point x="179" y="260"/>
			<point x="182" y="269"/>
			<point x="201" y="279" type="curve" smooth="yes"/>
			<point x="426" y="392" type="line" smooth="yes"/>
			<point x="500" y="430"/>
			<point x="533" y="459"/>
			<point x="533" y="531" type="curve" smooth="yes"/>
			<point x="533" y="632" type="line" smooth="yes"/>
			<point x="533" y="737"/>
			<point x="486" y="800"/>
			<point x="360" y="798" type="curve" smooth="yes"/>
			<point x="70" y="793" type="line"/>
			<point x="70" y="684" type="line"/>
			<point x="390" y="684" type="line" smooth="yes"/>
			<point x="400" y="684"/>
			<point x="406" y="679"/>
			<point x="406" y="668" type="curve" smooth="yes"/>
			<point x="406" y="523" type="line" smooth="yes"/>
			<point x="406" y="510"/>
			<point x="401" y="506"/>
			<point x="390" y="500" type="curve" smooth="yes"/>
		</contour>
	</outline>
</glyph>
<glyph name="four" format="2">
	<advance width="680"/>
	<unicode hex="0034"/>
	<outline>
		<contour>
			<point x="397" y="0" type="line"/>
			<point x="522" y="0" type="line"/>
			<point x="522" y="189" type="line"/>
			<point x="513" y="179" type="line"/>
			<point x="640" y="179" type="line"/>
			<point x="640" y="285" type="line"/>
			<point x="513" y="285" type="line"/>
			<point x="522" y="276" type="line"/>
			<point x="522" y="793" type="line"/>
			<point x="402" y="796" type="line" smooth="yes"/>
			<point x="307" y="798"/>
			<point x="289" y="764"/>
			<point x="247" y="685" type="curve" smooth="yes"/>
			<point x="20" y="269" type="line"/>
			<point x="20" y="179" type="line"/>
			<point x="407" y="179" type="line"/>
			<point x="397" y="189" type="line"/>
		</contour>
		<contour>
			<point x="140" y="276" type="line"/>
			<point x="353" y="672" type="line" smooth="yes"/>
			<point x="359" y="681"/>
			<point x="361" y="685"/>
			<point x="371" y="685" type="curve" smooth="yes"/>
			<point x="397" y="685" type="line"/>
			<point x="397" y="276" type="line"/>
			<point x="407" y="285" type="line"/>
			<point x="132" y="285" type="line"/>
		</contour>
	</outline>
</glyph>
<glyph name="colon" format="2">
	<advance width="265"/>
	<unicode hex="003A"/>
	<outline>
		<contour>
			<point x="74" y="31" type="line"/>
			<point x="192" y="31" type="line"/>
			<point x="192" y="171" type="line"/>
			<point x="74" y="171" type="line"/>
		</contour>
		<contour>
			<point x="74" y="357" type="line"/>
			<point x="192" y="357" type="line"/>
			<point x="192" y="498" type="line"/>
			<point x="74" y="498" type="line"/>
		</contour>
	</outline>
</glyph>
<glyph name="F" format="2">
	<advance width="550"/>
	<unicode hex="0046"/>
	<outline>
		<contour>
			<point x="504" y="337" type="line"/>
			<point x="504" y="445" type="line"/>
			<point x="192" y="445" type="line"/>
			<point x="213" y="424" type="line"/>
			<point x="213" y="793" type="line"/>
			<point x="87" y="793" type="line"/>
			<point x="87" y="0" type="line"/>
			<point x="213" y="0" type="line"/>
			<point x="213" y="357" type="line"/>
			<point x="192" y="337" type="line"/>
		</contour>
		<contour>
			<point x="165" y="793" type="line"/>
			<point x="165" y="684" type="line"/>
			<point x="527" y="684" type="line"/>
			<point x="527" y="793" type="line"/>
		</contour>
	</outline>
</glyph>
<glyph name="H" format="2">
	<advance width="732"/>
	<unicode hex="0048"/>
	<outline>
		<contour>
			<point x="521" y="793" type="line"/>
			<point x="521" y="436" type="line"/>
			<point x="541" y="457" type="line"/>
			<point x="192" y="457" type="line"/>
			<point x="213" y="436" type="line"/>
			<point x="213" y="793" type="line"/>
			<point x="87" y="793" type="line"/>
			<point x="87" y="0" type="line"/>
			<point x="213" y="0" type="line"/>
			<point x="213" y="368" type="line"/>
			<point x="192" y="348" type="line"/>
			<point x="541" y="348" type="line"/>
			<point x="521" y="368" type="line"/>
			<point x="521" y="0" type="line"/>
			<point x="646" y="0" type="line"/>
			<point x="646" y="793" type="line"/>
		</contour>
	</outline>
</glyph>
<glyph name="M" format="2">
	<advance width="826"/>
	<unicode hex="004D"/>
	<outline>
		<contour>
			<point x="747" y="768"/>
			<point x="725" y="793"/>
			<point x="665" y="793" type="curve" smooth="yes"/>
			<point x="627" y="793" type="line"/>
			<point x="399" y="352" type="line"/>
			<point x="430" y="352" type="line"/>
			<point x="225" y="744" type="line" smooth="yes"/>
			<point x="207" y="781"/>
			<point x="193" y="793"/>
			<point x="149" y="793" type="curve" smooth="yes"/>
			<point x="81" y="793" type="line"/>
			<point x="81" y="0" type="line"/>
			<point x="192" y="0" type="line"/>
			<point x="192" y="632" type="line"/>
			<point x="172" y="632" type="line"/>
			<point x="369" y="243" type="line"/>
			<point x="443" y="243" type="line"/>
			<point x="651" y="645" type="line"/>
			<point x="626" y="645" type="line"/>
			<point x="626" y="0" type="line"/>
			<point x="747" y="0" type="line"/>
			<point x="747" y="711" type="line" smooth="yes"/>
		</contour>
	</outline>
</glyph>
<glyph name="Y" format="2">
	<advance width="667"/>
	<unicode hex="0059"/>
	<anchor x="334" y="774" name="top"/>
	<outline>
		<contour>
			<point x="527" y="793" type="line"/>
			<point x="378" y="403" type="line" smooth="yes"/>
			<point x="375" y="393"/>
			<point x="371" y="390"/>
			<point x="362" y="390" type="curve" smooth="yes"/>
			<point x="309" y="390" type="line" smooth="yes"/>
			<point x="299" y="390"/>
			<point x="296" y="393"/>
			<point x="293" y="403" type="curve" smooth="yes"/>
			<point x="145" y="793" type="line"/>
			<point x="12" y="793" type="line"/>
			<point x="162" y="400" type="line" smooth="yes"/>
			<point x="197" y="308"/>
			<point x="221" y="281"/>
			<point x="326" y="281" type="curve" smooth="yes"/>
			<point x="341" y="281" type="line" smooth="yes"/>
			<point x="446" y="281"/>
			<point x="462" y="303"/>
			<point x="499" y="399" type="curve" smooth="yes"/>
			<point x="653" y="793" type="line"/>
		</contour>
		<contour>
			<point x="269" y="0" type="line"/>
			<point x="394" y="0" type="line"/>
			<point x="394" y="358" type="line"/>
			<point x="269" y="358" type="line"/>
		</contour>
	</outline>
</glyph>
<glyph name="Z" format="2">
	<advance width="599"/>
	<unicode hex="005A"/>
	<anchor x="303" y="774" name="top"/>
	<outline>
		<contour>
			<point x="558" y="-1" type="line"/>
			<point x="559" y="102" type="line"/>
			<point x="196" y="102" type="line" smooth="yes"/>
			<point x="185" y="102"/>
			<point x="183" y="112"/>
			<point x="189" y="121" type="curve" smooth="yes"/>
			<point x="571" y="680" type="line"/>
			<point x="571" y="751"/>
			<point x="538" y="794"/>
			<point x="463" y="794" type="curve" smooth="yes"/>
			<point x="63" y="794" type="line"/>
			<point x="63" y="691" type="line"/>
			<point x="413" y="691" type="line" smooth="yes"/>
			<point x="423" y="691"/>
			<point x="427" y="683"/>
			<point x="421" y="674" type="curve" smooth="yes"/>
			<point x="32" y="102" type="line"/>
			<point x="32" y="35"/>
			<point x="67" y="-1"/>
			<point x="134" y="-1" type="curve" smooth="yes"/>
		</contour>
	</outline>
</glyph>
<glyph name="bracketleft" format="2">
	<advance width="354"/>
	<unicode hex="005B"/>
	<outline>
		<contour>
			<point x="74" y="-212" type="line"/>
			<point x="322" y="-212" type="line"/>
			<point x="322" y="-124" type="line"/>
			<point x="197" y="-124" type="line"/>
			<point x="197" y="760" type="line"/>
			<point x="322" y="760" type="line"/>
			<point x="322" y="849" type="line"/>
			<point x="74" y="849" type="line"/>
		</contour>
	</outline>
</glyph>
<glyph name="underscore" format="2">
	<advance width="555"/>
	<unicode hex="005F"/>
	<outline>
		<contour>
			<point x="531" y="-130" type="line"/>
			<point x="531" y="-52" type="line"/>
			<point x="25" y="-52" type="line"/>
			<point x="25" y="-130" type="line"/>
		</contour>
	</outline>
</glyph>
<glyph name="grave" format="2">
	<advance width="373"/>
	<unicode hex="0060"/>
	<anchor x="195" y="612" name="_top"/>
	<outline>
		<contour>
			<point x="163" y="689" type="line"/>
			<point x="41" y="872" type="line"/>
			<point x="166" y="873" type="line"/>
			<point x="249" y="689" type="line"/>
		</contour>
	</outline>
</glyph>
<glyph name="a" format="2">
	<advance width="531"/>
	<unicode hex="0061"/>
	<anchor x="474" y="0" name="ogonek"/>
	<anchor x="267" y="612" name="top"/>
	<outline>
		<contour>
			<point x="181" y="-9" type="curve" smooth="yes"/>
			<point x="245" y="-9" type="line" smooth="yes"/>
			<point x="327" y="-9"/>
			<point x="359" y="32"/>
			<point x="359" y="114" type="curve"/>
			<point x="352" y="89" type="line"/>
			<point x="365" y="0" type="line"/>
			<point x="474" y="0" type="line"/>
			<point x="474" y="464" type="line" smooth="yes"/>
			<point x="474" y="575"/>
			<point x="426" y="614"/>
			<point x="312" y="613" type="curve" smooth="yes"/>
			<point x="74" y="613" type="line"/>
			<point x="74" y="510" type="line"/>
			<point x="339" y="511" type="line" smooth="yes"/>
			<point x="347" y="511"/>
			<point x="352" y="507"/>
			<point x="352" y="498" type="curve" smooth="yes"/>
			<point x="352" y="89" type="line"/>
			<point x="170" y="89" type="line" smooth="yes"/>
			<point x="162" y="89"/>
			<point x="157" y="92"/>
			<point x="157" y="103" type="curve" smooth="yes"/>
			<point x="157" y="258" type="line" smooth="yes"/>
			<point x="157" y="267"/>
			<point x="162" y="271"/>
			<point x="170" y="271" type="curve" smooth="yes"/>
			<point x="366" y="271" type="line"/>
			<point x="366" y="359" type="line"/>
			<point x="195" y="359" type="line" smooth="yes"/>
			<point x="81" y="359"/>
			<point x="37" y="323"/>
			<point x="37" y="216" type="curve" smooth="yes"/>
			<point x="37" y="126" type="line" smooth="yes"/>
			<point x="37" y="25"/>
			<point x="81" y="-9"/>
		</contour>
	</outline>
</glyph>
<glyph name="b" format="2">
	<advance width="571"/>
	<unicode hex="0062"/>
	<outline>
		<contour>
			<point x="72" y="0" type="line"/>
			<point x="357" y="-6" type="line" smooth="yes"/>
			<point x="471" y="-8"/>
			<point x="516" y="29"/>
			<point x="516" y="137" type="curve" smooth="yes"/>
			<point x="516" y="485" type="line" smooth="yes"/>
			<point x="516" y="586"/>
			<point x="471" y="621"/>
			<point x="370" y="621" type="curve" smooth="yes"/>
			<point x="300" y="621" type="line" smooth="yes"/>
			<point x="219" y="621"/>
			<point x="186" y="580"/>
			<point x="186" y="498" type="curve"/>
			<point x="193" y="523" type="line"/>
			<point x="193" y="842" type="line"/>
			<point x="72" y="842" type="line"/>
		</contour>
		<contour>
			<point x="193" y="82" type="line"/>
			<point x="193" y="509" type="line" smooth="yes"/>
			<point x="193" y="518"/>
			<point x="198" y="523"/>
			<point x="207" y="523" type="curve" smooth="yes"/>
			<point x="382" y="523" type="line" smooth="yes"/>
			<point x="391" y="523"/>
			<point x="395" y="519"/>
			<point x="395" y="509" type="curve" smooth="yes"/>
			<point x="395" y="109" type="line" smooth="yes"/>
			<point x="395" y="99"/>
			<point x="391" y="95"/>
			<point x="382" y="95" type="curve" smooth="yes"/>
			<point x="179" y="97" type="line"/>
		</contour>
	</outline>
</glyph>
<glyph name="f" format="2">
	<advance width="375"/>
	<unicode hex="0066"/>
	<outline>
		<contour>
			<point x="233" y="750" type="curve" smooth="yes"/>
			<point x="394" y="750" type="line"/>
			<point x="394" y="852" type="line"/>
			<point x="260" y="852" type="line" smooth="yes"/>
			<point x="146" y="853"/>
			<point x="99" y="814"/>
			<point x="99" y="703" type="curve" smooth="yes"/>
			<point x="99" y="593" type="line"/>
			<point x="118" y="612" type="line"/>
			<point x="28" y="612" type="line"/>
			<point x="28" y="517" type="line"/>
			<point x="118" y="517" type="line"/>
			<point x="99" y="536" type="line"/>
			<point x="99" y="0" type="line"/>
			<point x="220" y="0" type="line"/>
			<point x="220" y="536" type="line"/>
			<point x="200" y="517" type="line"/>
			<point x="372" y="517" type="line"/>
			<point x="372" y="612" type="line"/>
			<point x="200" y="612" type="line"/>
			<point x="220" y="593" type="line"/>
			<point x="220" y="737" type="line" smooth="yes"/>
			<point x="220" y="746"/>
			<point x="224" y="750"/>
		</contour>
	</outline>
</glyph>
<glyph name="h" format="2">
	<advance width="565"/>
	<unicode hex="0068"/>
	<outline>
		<contour>
			<point x="362" y="621" type="curve" smooth="yes"/>
			<point x="292" y="621" type="line" smooth="yes"/>
			<point x="209" y="621"/>
			<point x="174" y="580"/>
			<point x="174" y="498" type="curve"/>
			<point x="185" y="523" type="line"/>
			<point x="185" y="842" type="line"/>
			<point x="64" y="842" type="line"/>
			<point x="65" y="0" type="line"/>
			<point x="186" y="0" type="line"/>
			<point x="185" y="509" type="line" smooth="yes"/>
			<point x="185" y="519"/>
			<point x="189" y="523"/>
			<point x="198" y="523" type="curve" smooth="yes"/>
			<point x="373" y="523" type="line" smooth="yes"/>
			<point x="382" y="523"/>
			<point x="386" y="519"/>
			<point x="386" y="509" type="curve" smooth="yes"/>
			<point x="386" y="0" type="line"/>
			<point x="508" y="0" type="line"/>
			<point x="508" y="485" type="line" smooth="yes"/>
			<point x="508" y="586"/>
			<point x="463" y="621"/>
		</contour>
	</outline>
</glyph>
<glyph name="j" format="2">
	<advance width="263"/>
	<unicode hex="006A"/>
	<outline>
		<contour>
			<point x="74" y="721" type="line"/>
			<point x="195" y="721" type="line"/>
			<point x="195" y="833" type="line"/>
			<point x="74" y="833" type="line"/>
		</contour>
		<contour>
			<point x="74" y="-131" type="line" smooth="yes"/>
			<point x="74" y="-141"/>
			<point x="70" y="-145"/>
			<point x="61" y="-145" type="curve" smooth="yes"/>
			<point x="-40" y="-145" type="line"/>
			<point x="-40" y="-247" type="line"/>
			<point x="23" y="-247" type="line" smooth="yes"/>
			<point x="144" y="-247"/>
			<point x="195" y="-205"/>
			<point x="195" y="-94" type="curve" smooth="yes"/>
			<point x="195" y="612" type="line"/>
			<point x="74" y="612" type="line"/>
		</contour>
	</outline>
</glyph>
<glyph name="o" format="2">
	<advance width="564"/>
	<unicode hex="006F"/>
	<anchor x="285" y="612" name="top"/>
	<outline>
		<contour>
			<point x="192" y="520" type="curve" smooth="yes"/>
			<point x="373" y="520" type="line" smooth="yes"/>
			<point x="381" y="520"/>
			<point x="386" y="515"/>
			<point x="386" y="506" type="curve" smooth="yes"/>
			<point x="386" y="106" type="line" smooth="yes"/>
			<point x="386" y="96"/>
			<point x="381" y="92"/>
			<point x="373" y="92" type="curve" smooth="yes"/>
			<point x="192" y="92" type="line" smooth="yes"/>
			<point x="183" y="92"/>
			<point x="178" y="96"/>
			<point x="178" y="106" type="curve" smooth="yes"/>
			<point x="178" y="506" type="line" smooth="yes"/>
			<point x="178" y="515"/>
			<point x="183" y="520"/>
		</contour>
		<contour>
			<point x="56" y="469" type="curve" smooth="yes"/>
			<point x="56" y="143" type="line" smooth="yes"/>
			<point x="56" y="32"/>
			<point x="106" y="-9"/>
			<point x="227" y="-9" type="curve" smooth="yes"/>
			<point x="336" y="-9" type="line" smooth="yes"/>
			<point x="458" y="-9"/>
			<point x="508" y="32"/>
			<point x="508" y="143" type="curve" smooth="yes"/>
			<point x="508" y="469" type="line" smooth="yes"/>
			<point x="508" y="580"/>
			<point x="458" y="621"/>
			<point x="336" y="621" type="curve" smooth="yes"/>
			<point x="227" y="621" type="line" smooth="yes"/>
			<point x="106" y="621"/>
			<point x="56" y="580"/>
		</contour>
	</outline>
</glyph>
<glyph name="x" format="2">
	<advance width="561"/>
	<unicode hex="0078"/>
	<outline>
		<contour>
			<point x="8" y="0" type="line"/>
			<point x="133" y="0" type="line"/>
			<point x="235" y="245" type="line" smooth="yes"/>
			<point x="238" y="253"/>
			<point x="240" y="257"/>
			<point x="249" y="257" type="curve" smooth="yes"/>
			<point x="311" y="257" type="line" smooth="yes"/>
			<point x="319" y="257"/>
			<point x="321" y="253"/>
			<point x="324" y="244" type="curve" smooth="yes"/>
			<point x="429" y="0" type="line"/>
			<point x="556" y="0" type="line"/>
			<point x="465" y="201" type="line" smooth="yes"/>
			<point x="425" y="292"/>
			<point x="411" y="316"/>
			<point x="322" y="320" type="curve"/>
			<point x="323" y="295" type="line"/>
			<point x="396" y="301"/>
			<point x="414" y="325"/>
			<point x="448" y="413" type="curve" smooth="yes"/>
			<point x="532" y="612" type="line"/>
			<point x="414" y="612" type="line"/>
			<point x="316" y="369" type="line" smooth="yes"/>
			<point x="313" y="360"/>
			<point x="310" y="357"/>
			<point x="301" y="357" type="curve" smooth="yes"/>
			<point x="263" y="357" type="line" smooth="yes"/>
			<point x="254" y="357"/>
			<point x="252" y="361"/>
			<point x="249" y="370" type="curve" smooth="yes"/>
			<point x="152" y="612" type="line"/>
			<point x="30" y="612" type="line"/>
			<point x="112" y="413" type="line" smooth="yes"/>
			<point x="149" y="322"/>
			<point x="168" y="298"/>
			<point x="247" y="294" type="curve"/>
			<point x="247" y="320" type="line"/>
			<point x="153" y="318"/>
			<point x="139" y="296"/>
			<point x="99" y="201" type="curve" smooth="yes"/>
		</contour>
	</outline>
</glyph>
<glyph name="y" format="2">
	<advance width="569"/>
	<unicode hex="0079"/>
	<anchor x="275" y="612" name="top"/>
	<outline>
		<contour>
			<point x="380" y="-131" type="line" smooth="yes"/>
			<point x="380" y="-141"/>
			<point x="376" y="-145"/>
			<point x="367" y="-145" type="curve" smooth="yes"/>
			<point x="77" y="-145" type="line"/>
			<point x="77" y="-247" type="line"/>
			<point x="330" y="-247" type="line" smooth="yes"/>
			<point x="450" y="-247"/>
			<point x="501" y="-205"/>
			<point x="501" y="-94" type="curve" smooth="yes"/>
			<point x="500" y="612" type="line"/>
			<point x="379" y="612" type="line"/>
			<point x="380" y="89" type="line"/>
			<point x="192" y="89" type="line" smooth="yes"/>
			<point x="183" y="89"/>
			<point x="178" y="92"/>
			<point x="178" y="103" type="curve" smooth="yes"/>
			<point x="178" y="612" type="line"/>
			<point x="57" y="612" type="line"/>
			<point x="57" y="126" type="line" smooth="yes"/>
			<point x="57" y="25"/>
			<point x="102" y="-9"/>
			<point x="202" y="-9" type="curve" smooth="yes"/>
			<point x="273" y="-9" type="line" smooth="yes"/>
			<point x="355" y="-9"/>
			<point x="388" y="32"/>
			<point x="388" y="114" type="curve"/>
			<point x="380" y="89" type="line"/>
		</contour>
	</outline>
</glyph>
<glyph name="yen" format="2">
	<advance width="672"/>
	<unicode hex="00A5"/>
	<outline>
		<contour>
			<point x="516" y="749" type="line"/>
			<point x="376" y="390" type="line" smooth="yes"/>
			<point x="372" y="381"/>
			<point x="369" y="378"/>
			<point x="361" y="378" type="curve" smooth="yes"/>
			<point x="319" y="378" type="line" smooth="yes"/>
			<point x="309" y="378"/>
			<point x="306" y="381"/>
			<point x="303" y="390" type="curve" smooth="yes"/>
			<point x="163" y="749" type="line"/>
			<point x="32" y="749" type="line"/>
			<point x="183" y="387" type="line" smooth="yes"/>
			<point x="211" y="320"/>
			<point x="226" y="300"/>
			<point x="272" y="290" type="curve"/>
			<point x="272" y="0" type="line"/>
			<point x="398" y="0" type="line"/>
			<point x="398" y="288" type="line"/>
			<point x="445" y="296"/>
			<point x="457" y="315"/>
			<point x="487" y="386" type="curve" smooth="yes"/>
			<point x="642" y="749" type="line"/>
		</contour>
		<contour>
			<point x="105" y="148" type="line"/>
			<point x="286" y="148" type="line"/>
			<point x="286" y="223" type="line"/>
			<point x="105" y="223" type="line"/>
		</contour>
		<contour>
			<point x="105" y="286" type="line"/>
			<point x="286" y="286" type="line"/>
			<point x="286" y="360" type="line"/>
			<point x="105" y="360" type="line"/>
		</contour>
		<contour>
			<point x="385" y="148" type="line"/>
			<point x="566" y="148" type="line"/>
			<point x="566" y="223" type="line"/>
			<point x="385" y="223" type="line"/>
		</contour>
		<contour>
			<point x="385" y="286" type="line"/>
			<point x="566" y="286" type="line"/>
			<point x="566" y="360" type="line"/>
			<point x="385" y="360" type="line"/>
		</contour>
	</outline>
</glyph>
<glyph name="copyright" format="2">
	<advance width="642"/>
	<unicode hex="00A9"/>
	<outline>
		<contour>
			<point x="159" y="746" type="curve" smooth="yes"/>
			<point x="482" y="746" type="line" smooth="yes"/>
			<point x="489" y="746"/>
			<point x="494" y="743"/>
			<point x="494" y="735" type="curve" smooth="yes"/>
			<point x="494" y="270" type="line" smooth="yes"/>
			<point x="494" y="261"/>
			<point x="489" y="258"/>
			<point x="482" y="258" type="curve" smooth="yes"/>
			<point x="159" y="258" type="line" smooth="yes"/>
			<point x="153" y="258"/>
			<point x="147" y="261"/>
			<point x="147" y="270" type="curve" smooth="yes"/>
			<point x="147" y="735" type="line" smooth="yes"/>
			<point x="147" y="743"/>
			<point x="153" y="746"/>
		</contour>
		<contour>
			<point x="81" y="680" type="curve" smooth="yes"/>
			<point x="81" y="324" type="line" smooth="yes"/>
			<point x="81" y="233"/>
			<point x="121" y="202"/>
			<point x="215" y="202" type="curve" smooth="yes"/>
			<point x="427" y="202" type="line" smooth="yes"/>
			<point x="521" y="202"/>
			<point x="562" y="233"/>
			<point x="562" y="324" type="curve" smooth="yes"/>
			<point x="562" y="680" type="line" smooth="yes"/>
			<point x="562" y="771"/>
			<point x="521" y="802"/>
			<point x="427" y="802" type="curve" smooth="yes"/>
			<point x="215" y="802" type="line" smooth="yes"/>
			<point x="121" y="802"/>
			<point x="81" y="771"/>
		</contour>
		<contour>
			<point x="336" y="304" type="curve" smooth="yes"/>
			<point x="446" y="304" type="line"/>
			<point x="446" y="387" type="line"/>
			<point x="307" y="387" type="line" smooth="yes"/>
			<point x="299" y="387"/>
			<point x="293" y="391"/>
			<point x="293" y="401" type="curve" smooth="yes"/>
			<point x="293" y="603" type="line" smooth="yes"/>
			<point x="293" y="613"/>
			<point x="299" y="617"/>
			<point x="307" y="617" type="curve" smooth="yes"/>
			<point x="446" y="617" type="line"/>
			<point x="446" y="700" type="line"/>
			<point x="336" y="700" type="line" smooth="yes"/>
			<point x="234" y="700"/>
			<point x="195" y="669"/>
			<point x="195" y="570" type="curve" smooth="yes"/>
			<point x="195" y="434" type="line" smooth="yes"/>
			<point x="195" y="335"/>
			<point x="234" y="304"/>
		</contour>
	</outline>
</glyph>
<glyph name="degree" format="2">
	<advance width="377"/>
	<unicode hex="00B0"/>
	<outline>
		<contour>
			<point x="34" y="699" type="curve" smooth="yes"/>
			<point x="34" y="538" type="line" smooth="yes"/>
			<point x="34" y="468"/>
			<point x="68" y="435"/>
			<point x="149" y="435" type="curve" smooth="yes"/>
			<point x="228" y="435" type="line" smooth="yes"/>
			<point x="309" y="435"/>
			<point x="344" y="468"/>
			<point x="344" y="538" type="curve" smooth="yes"/>
			<point x="344" y="699" type="line" smooth="yes"/>
			<point x="344" y="770"/>
			<point x="309" y="802"/>
			<point x="228" y="802" type="curve" smooth="yes"/>
			<point x="149" y="802" type="line" smooth="yes"/>
			<point x="68" y="802"/>
			<point x="34" y="770"/>
		</contour>
		<contour>
			<point x="139" y="721" type="curve" smooth="yes"/>
			<point x="238" y="721" type="line" smooth="yes"/>
			<point x="246" y="721"/>
			<point x="252" y="717"/>
			<point x="252" y="708" type="curve" smooth="yes"/>
			<point x="252" y="530" type="line" smooth="yes"/>
			<point x="252" y="520"/>
			<point x="246" y="516"/>
			<point x="238" y="516" type="curve" smooth="yes"/>
			<point x="139" y="516" type="line" smooth="yes"/>
			<point x="131" y="516"/>
			<point x="126" y="520"/>
			<point x="126" y="530" type="curve" smooth="yes"/>
			<point x="126" y="708" type="line" smooth="yes"/>
			<point x="126" y="717"/>
			<point x="131" y="721"/>
		</contour>
	</outline>
</glyph>
<glyph name="cedilla" format="2">
	<advance width="335"/>
	<unicode hex="00B8"/>
	<anchor x="172" y="0" name="_bottom"/>
	<outline>
		<contour>
			<point x="196" y="-129" type="curve" smooth="yes"/>
			<point x="196" y="-182" type="line" smooth="yes"/>
			<point x="196" y="-188"/>
			<point x="192" y="-191"/>
			<point x="187" y="-191" type="curve" smooth="yes"/>
			<point x="69" y="-191" type="line"/>
			<point x="69" y="-263" type="line"/>
			<point x="163" y="-263" type="line" smooth="yes"/>
			<point x="237" y="-263"/>
			<point x="274" y="-231"/>
			<point x="274" y="-163" type="curve" smooth="yes"/>
			<point x="274" y="-136" type="line" smooth="yes"/>
			<point x="274" y="-76"/>
			<point x="238" y="-56"/>
			<point x="174" y="-56" type="curve" smooth="yes"/>
			<point x="161" y="-56" type="line"/>
			<point x="173" y="6" type="line"/>
			<point x="113" y="15" type="line"/>
			<point x="84" y="-121" type="line"/>
			<point x="187" y="-121" type="line" smooth="yes"/>
			<point x="192" y="-121"/>
			<point x="196" y="-123"/>
		</contour>
	</outline>
</glyph>
<glyph name="eth" format="2">
	<advance width="564"/>
	<unicode hex="00F0"/>
	<outline>
		<contour>
			<point x="227" y="-9" type="curve" smooth="yes"/>
			<point x="330" y="-9" type="line" smooth="yes"/>
			<point x="451" y="-9"/>
			<point x="500" y="32"/>
			<point x="500" y="143" type="curve" smooth="yes"/>
			<point x="500" y="699" type="line" smooth="yes"/>
			<point x="500" y="810"/>
			<point x="453" y="849"/>
			<point x="338" y="848" type="curve" smooth="yes"/>
			<point x="148" y="848" type="line"/>
			<point x="148" y="757" type="line"/>
			<point x="365" y="758" type="line" smooth="yes"/>
			<point x="375" y="758"/>
			<point x="379" y="754"/>
			<point x="379" y="744" type="curve" smooth="yes"/>
			<point x="379" y="579" type="line"/>
			<point x="389" y="586" type="line"/>
			<point x="224" y="586" type="line" smooth="yes"/>
			<point x="103" y="586"/>
			<point x="56" y="544"/>
			<point x="56" y="433" type="curve" smooth="yes"/>
			<point x="56" y="143" type="line" smooth="yes"/>
			<point x="56" y="32"/>
			<point x="106" y="-9"/>
		</contour>
		<contour>
			<point x="190" y="92" type="line" smooth="yes"/>
			<point x="182" y="92"/>
			<point x="177" y="96"/>
			<point x="177" y="106" type="curve" smooth="yes"/>
			<point x="177" y="481" type="line" smooth="yes"/>
			<point x="177" y="490"/>
			<point x="182" y="494"/>
			<point x="190" y="494" type="curve" smooth="yes"/>
			<point x="394" y="494" type="line"/>
			<point x="380" y="507" type="line"/>
			<point x="380" y="106" type="line" smooth="yes"/>
			<point x="380" y="96"/>
			<point x="375" y="92"/>
			<point x="366" y="92" type="curve" smooth="yes"/>
		</contour>
		<contour>
			<point x="274" y="637" type="line"/>
			<point x="558" y="785" type="line"/>
			<point x="532" y="841" type="line"/>
			<point x="246" y="693" type="line"/>
		</contour>
	</outline>
</glyph>
<glyph name="divide" format="2">
	<advance width="626"/>
	<unicode hex="00F7"/>
	<outline>
		<contour>
			<point x="65" y="320" type="line"/>
			<point x="561" y="320" type="line"/>
			<point x="561" y="410" type="line"/>
			<point x="65" y="410" type="line"/>
		</contour>
		<contour>
			<point x="257" y="76" type="line"/>
			<point x="368" y="76" type="line"/>
			<point x="368" y="210" type="line"/>
			<point x="257" y="210" type="line"/>
		</contour>
		<contour>
			<point x="257" y="521" type="line"/>
			<point x="368" y="521" type="line"/>
			<point x="368" y="655" type="line"/>
			<point x="257" y="655" type="line"/>
		</contour>
	</outline>
</glyph>
<glyph name="oe" format="2">
	<advance width="872"/>
	<unicode hex="0153"/>
	<outline>
		<contour>
			<point x="192" y="520" type="curve" smooth="yes"/>
			<point x="374" y="520" type="line" smooth="yes"/>
			<point x="382" y="520"/>
			<point x="388" y="515"/>
			<point x="388" y="506" type="curve" smooth="yes"/>
			<point x="388" y="106" type="line" smooth="yes"/>
			<point x="388" y="96"/>
			<point x="382" y="92"/>
			<point x="374" y="92" type="curve" smooth="yes"/>
			<point x="192" y="92" type="line" smooth="yes"/>
			<point x="183" y="92"/>
			<point x="178" y="96"/>
			<point x="178" y="106" type="curve" smooth="yes"/>
			<point x="178" y="506" type="line" smooth="yes"/>
			<point x="178" y="515"/>
			<point x="183" y="520"/>
		</contour>
		<contour>
			<point x="466" y="87" type="curve"/>
			<point x="430" y="87" type="line"/>
			<point x="445" y="19"/>
			<point x="487" y="-7"/>
			<point x="577" y="-7" type="curve" smooth="yes"/>
			<point x="807" y="-7" type="line"/>
			<point x="807" y="95" type="line"/>
			<point x="520" y="95" type="line" smooth="yes"/>
			<point x="511" y="95"/>
			<point x="506" y="98"/>
			<point x="506" y="108" type="curve" smooth="yes"/>
			<point x="506" y="509" type="line" smooth="yes"/>
			<point x="506" y="518"/>
			<point x="511" y="523"/>
			<point x="520" y="523" type="curve" smooth="yes"/>
			<point x="689" y="523" type="line" smooth="yes"/>
			<point x="698" y="523"/>
			<point x="702" y="518"/>
			<point x="702" y="509" type="curve" smooth="yes"/>
			<point x="702" y="324" type="line"/>
			<point x="491" y="324" type="line"/>
			<point x="491" y="236" type="line"/>
			<point x="822" y="236" type="line"/>
			<point x="822" y="475" type="line" smooth="yes"/>
			<point x="822" y="586"/>
			<point x="778" y="621"/>
			<point x="664" y="621" type="curve" smooth="yes"/>
			<point x="560" y="621" type="line" smooth="yes"/>
			<point x="472" y="621"/>
			<point x="438" y="599"/>
			<point x="428" y="534" type="curve"/>
			<point x="463" y="534" type="line"/>
			<point x="450" y="598"/>
			<point x="409" y="621"/>
			<point x="319" y="621" type="curve" smooth="yes"/>
			<point x="227" y="621" type="line" smooth="yes"/>
			<point x="106" y="621"/>
			<point x="56" y="580"/>
			<point x="56" y="469" type="curve" smooth="yes"/>
			<point x="56" y="143" type="line" smooth="yes"/>
			<point x="56" y="32"/>
			<point x="106" y="-9"/>
			<point x="227" y="-9" type="curve" smooth="yes"/>
			<point x="319" y="-9" type="line" smooth="yes"/>
			<point x="411" y="-9"/>
			<point x="453" y="17"/>
		</contour>
	</outline>
</glyph>
<glyph name="dotaccent" format="2">
	<advance width="214"/>
	<unicode hex="02D9"/>
	<anchor x="107" y="612" name="_top"/>
	<outline>
		<contour>
			<point x="50" y="712" type="line"/>
			<point x="164" y="712" type="line"/>
			<point x="164" y="842" type="line"/>
			<point x="50" y="842" type="line"/>
		</contour>
	</outline>
</glyph>
<glyph name="ring" format="2">
	<advance width="429"/>
	<unicode hex="02DA"/>
	<anchor x="215" y="612" name="_top"/>
	<outline>
		<contour>
			<point x="217" y="667" type="curve" smooth="yes"/>
			<point x="312" y="667"/>
			<point x="341" y="703"/>
			<point x="341" y="787" type="curve" smooth="yes"/>
			<point x="341" y="873"/>
			<point x="312" y="905"/>
			<point x="217" y="905" type="curve" smooth="yes"/>
			<point x="125" y="905"/>
			<point x="98" y="873"/>
			<point x="98" y="787" type="curve" smooth="yes"/>
			<point x="98" y="703"/>
			<point x="125" y="667"/>
		</contour>
		<contour>
			<point x="217" y="723" type="curve" smooth="yes"/>
			<point x="169" y="723"/>
			<point x="161" y="741"/>
			<point x="161" y="787" type="curve" smooth="yes"/>
			<point x="161" y="837"/>
			<point x="169" y="850"/>
			<point x="217" y="850" type="curve" smooth="yes"/>
			<point x="268" y="850"/>
			<point x="278" y="837"/>
			<point x="278" y="787" type="curve" smooth="yes"/>
			<point x="278" y="741"/>
			<point x="268" y="723"/>
		</contour>
	</outline>
</glyph>
<glyph name="ogonek" format="2">
	<advance width="411"/>
	<unicode hex="02DB"/>
	<anchor x="310" y="0" name="_ogonek"/>
	<outline>
		<contour>
			<point x="250" y="-263" type="curve" smooth="yes"/>
			<point x="332" y="-263" type="line"/>
			<point x="332" y="-180" type="line"/>
			<point x="229" y="-180" type="line" smooth="yes"/>
			<point x="224" y="-180"/>
			<point x="221" y="-177"/>
			<point x="221" y="-171" type="curve" smooth="yes"/>
			<point x="221" y="-115" type="line" smooth="yes"/>
			<point x="221" y="-104"/>
			<point x="222" y="-104"/>
			<point x="231" y="-94" type="curve" smooth="yes"/>
			<point x="310" y="0" type="line"/>
			<point x="234" y="7" type="line"/>
			<point x="157" y="-62" type="line" smooth="yes"/>
			<point x="133" y="-83"/>
			<point x="124" y="-106"/>
			<point x="124" y="-145" type="curve" smooth="yes"/>
			<point x="124" y="-173" type="line" smooth="yes"/>
			<point x="124" y="-244"/>
			<point x="170" y="-263"/>
		</contour>
	</outline>
</glyph>
<glyph name="tilde" format="2">
	<advance width="496"/>
	<unicode hex="02DC"/>
	<anchor x="249" y="612" name="_top"/>
	<outline>
		<contour>
			<point x="68" y="717" type="curve"/>
			<point x="145" y="716" type="line"/>
			<point x="145" y="752"/>
			<point x="155" y="765"/>
			<point x="174" y="765" type="curve" smooth="yes"/>
			<point x="214" y="765"/>
			<point x="272" y="717"/>
			<point x="332" y="717" type="curve" smooth="yes"/>
			<point x="387" y="717"/>
			<point x="422" y="750"/>
			<point x="422" y="850" type="curve"/>
			<point x="344" y="850" type="line"/>
			<point x="344" y="816"/>
			<point x="336" y="802"/>
			<point x="310" y="802" type="curve" smooth="yes"/>
			<point x="266" y="802"/>
			<point x="213" y="850"/>
			<point x="152" y="850" type="curve" smooth="yes"/>
			<point x="96" y="850"/>
			<point x="68" y="818"/>
		</contour>
	</outline>
</glyph>
<glyph name="pi" format="2">
	<advance width="632"/>
	<unicode hex="03C0"/>
	<outline>
		<contour>
			<point x="95" y="0" type="line"/>
			<point x="216" y="0" type="line"/>
			<point x="216" y="530" type="line"/>
			<point x="204" y="517" type="line"/>
			<point x="429" y="517" type="line"/>
			<point x="416" y="530" type="line"/>
			<point x="416" y="0" type="line"/>
			<point x="538" y="0" type="line"/>
			<point x="538" y="530" type="line"/>
			<point x="525" y="517" type="line"/>
			<point x="612" y="517" type="line"/>
			<point x="612" y="612" type="line"/>
			<point x="21" y="612" type="line"/>
			<point x="21" y="517" type="line"/>
			<point x="108" y="517" type="line"/>
			<point x="95" y="530" type="line"/>
		</contour>
	</outline>
</glyph>
<glyph name="ttha-khmer" format="2">
	<advance width="684"/>
	<unicode hex="178B"/>
	<anchor x="342" y="732" name="top"/>
	<anchor x="586" y="732" name="topright"/>
	<anchor x="586" y="0" name="bottomright"/>
	<anchor x="342" y="0" name="bottom"/>
	<note>
		Change Vo-Hiar to be more conistent with ba-hair
	</note>
	<outline>
		<contour>
			<point x="146" y="0" type="curve" smooth="yes"/>
			<point x="537" y="0" type="line" smooth="yes"/>
			<point x="570" y="0"/>
			<point x="586" y="16"/>
			<point x="586" y="49" type="curve" smooth="yes"/>
			<point x="586" y="527" type="line"/>
			<point x="528" y="551"/>
			<point x="472" y="595"/>
			<point x="454" y="642" type="curve"/>
			<point x="538" y="628" type="line"/>
			<point x="579" y="628" type="line" smooth="yes"/>
			<point x="609" y="628"/>
			<point x="626" y="647"/>
			<point x="626" y="683" type="curve" smooth="yes"/>
			<point x="626" y="770" type="line"/>
			<point x="508" y="770" type="line"/>
			<point x="508" y="720" type="line"/>
			<point x="449" y="732" type="line"/>
			<point x="435" y="732" type="line"/>
			<point x="371" y="645" type="line"/>
			<point x="380" y="596"/>
			<point x="420" y="543"/>
			<point x="464" y="511" type="curve"/>
			<point x="464" y="98" type="line"/>
			<point x="220" y="98" type="line"/>
			<point x="220" y="731" type="line"/>
			<point x="98" y="731" type="line"/>
			<point x="50" y="710"/>
			<point x="18" y="669"/>
			<point x="18" y="611" type="curve" smooth="yes"/>
			<point x="18" y="550"/>
			<point x="47" y="513"/>
			<point x="98" y="499" type="curve"/>
			<point x="98" y="49" type="line" smooth="yes"/>
			<point x="98" y="16"/>
			<point x="114" y="0"/>
		</contour>
		<contour>
			<point x="110" y="678" type="curve"/>
			<point x="110" y="549" type="line"/>
			<point x="85" y="556"/>
			<point x="72" y="578"/>
			<point x="72" y="610" type="curve" smooth="yes"/>
			<point x="72" y="639"/>
			<point x="85" y="664"/>
		</contour>
	</outline>
</glyph>
<glyph name="ba-khmer" format="2">
	<advance width="684"/>
	<unicode hex="1794"/>
	<anchor x="342" y="732" name="top"/>
	<anchor x="586" y="732" name="topright"/>
	<anchor x="586" y="0" name="bottomright"/>
	<anchor x="342" y="0" name="bottom"/>
	<outline>
		<contour>
			<point x="146" y="0" type="curve" smooth="yes"/>
			<point x="537" y="0" type="line" smooth="yes"/>
			<point x="570" y="0"/>
			<point x="586" y="16"/>
			<point x="586" y="49" type="curve" smooth="yes"/>
			<point x="586" y="521" type="line"/>
			<point x="537" y="550"/>
			<point x="495" y="585"/>
			<point x="472" y="628" type="curve"/>
			<point x="594" y="628" type="line"/>
			<point x="626" y="732" type="line"/>
			<point x="428" y="732" type="line"/>
			<point x="388" y="635" type="line"/>
			<point x="395" y="596"/>
			<point x="430" y="543"/>
			<point x="464" y="514" type="curve"/>
			<point x="464" y="98" type="line"/>
			<point x="220" y="98" type="line"/>
			<point x="220" y="521" type="line"/>
			<point x="171" y="550"/>
			<point x="129" y="585"/>
			<point x="106" y="628" type="curve"/>
			<point x="228" y="628" type="line"/>
			<point x="260" y="732" type="line"/>
			<point x="62" y="732" type="line"/>
			<point x="22" y="635" type="line"/>
			<point x="29" y="596"/>
			<point x="64" y="543"/>
			<point x="98" y="514" type="curve"/>
			<point x="98" y="49" type="line" smooth="yes"/>
			<point x="98" y="16"/>
			<point x="114" y="0"/>
		</contour>
	</outline>
</glyph>
<glyph name="po-khmer" format="2">
	<advance width="684"/>
	<unicode hex="1796"/>
	<anchor x="342" y="732" name="top"/>
	<anchor x="586" y="732" name="topright"/>
	<anchor x="586" y="0" name="bottomright"/>
	<anchor x="342" y="0" name="bottom"/>
	<outline>
		<contour>
			<point x="464" y="0" type="line"/>
			<point x="586" y="0" type="line"/>
			<point x="586" y="684" type="line" smooth="yes"/>
			<point x="586" y="716"/>
			<point x="570" y="732"/>
			<point x="537" y="732" type="curve" smooth="yes"/>
			<point x="426" y="732" type="line"/>
			<point x="332" y="667" type="line"/>
			<point x="239" y="732" type="line"/>
			<point x="103" y="732" type="line"/>
			<point x="53" y="635" type="line"/>
			<point x="58" y="584"/>
			<point x="72" y="550"/>
			<point x="98" y="513" type="curve"/>
			<point x="98" y="0" type="line"/>
			<point x="218" y="0" type="line"/>
			<point x="281" y="19"/>
			<point x="317" y="67"/>
			<point x="317" y="134" type="curve" smooth="yes"/>
			<point x="317" y="194"/>
			<point x="283" y="236"/>
			<point x="220" y="244" type="curve"/>
			<point x="220" y="523" type="line"/>
			<point x="174" y="553"/>
			<point x="147" y="587"/>
			<point x="137" y="628" type="curve"/>
			<point x="239" y="628" type="line"/>
			<point x="332" y="574" type="line"/>
			<point x="426" y="628" type="line"/>
			<point x="464" y="628" type="line"/>
		</contour>
		<contour>
			<point x="218" y="53" type="curve"/>
			<point x="218" y="192" type="line"/>
			<point x="245" y="188"/>
			<point x="261" y="167"/>
			<point x="261" y="132" type="curve" smooth="yes"/>
			<point x="261" y="94"/>
			<point x="244" y="67"/>
		</contour>
	</outline>
</glyph>
<glyph name="lo-khmer" format="2">
	<advance width="1024"/>
	<unicode hex="179B"/>
	<anchor x="688" y="732" name="top"/>
	<anchor x="924" y="732" name="topright"/>
	<anchor x="924" y="0" name="bottomright"/>
	<anchor x="688" y="0" name="bottom"/>
	<outline>
		<contour>
			<point x="501" y="0" type="curve" smooth="yes"/>
			<point x="877" y="0" type="line" smooth="yes"/>
			<point x="910" y="0"/>
			<point x="926" y="16"/>
			<point x="926" y="49" type="curve" smooth="yes"/>
			<point x="926" y="521" type="line"/>
			<point x="877" y="550"/>
			<point x="835" y="585"/>
			<point x="812" y="628" type="curve"/>
			<point x="934" y="628" type="line"/>
			<point x="966" y="732" type="line"/>
			<point x="768" y="732" type="line"/>
			<point x="728" y="635" type="line"/>
			<point x="735" y="596"/>
			<point x="770" y="543"/>
			<point x="804" y="514" type="curve"/>
			<point x="804" y="98" type="line"/>
			<point x="574" y="98" type="line"/>
			<point x="574" y="684" type="line" smooth="yes"/>
			<point x="574" y="716"/>
			<point x="558" y="732"/>
			<point x="525" y="732" type="curve" smooth="yes"/>
			<point x="146" y="732" type="line" smooth="yes"/>
			<point x="114" y="732"/>
			<point x="98" y="716"/>
			<point x="98" y="684" type="curve" smooth="yes"/>
			<point x="98" y="0" type="line"/>
			<point x="218" y="0" type="line"/>
			<point x="281" y="19"/>
			<point x="317" y="67"/>
			<point x="317" y="134" type="curve" smooth="yes"/>
			<point x="317" y="194"/>
			<point x="283" y="236"/>
			<point x="220" y="244" type="curve"/>
			<point x="220" y="634" type="line"/>
			<point x="452" y="634" type="line"/>
			<point x="452" y="49" type="line" smooth="yes"/>
			<point x="452" y="16"/>
			<point x="468" y="0"/>
		</contour>
		<contour>
			<point x="218" y="53" type="curve"/>
			<point x="218" y="192" type="line"/>
			<point x="245" y="188"/>
			<point x="261" y="167"/>
			<point x="261" y="132" type="curve" smooth="yes"/>
			<point x="261" y="94"/>
			<point x="244" y="67"/>
		</contour>
	</outline>
</glyph>
<glyph name="quuv-khmer" format="2">
	<advance width="684"/>
	<unicode hex="17AA"/>
	<outline>
		<contour>
			<point x="98" y="891" type="curve" smooth="yes"/>
			<point x="98" y="780" type="line"/>
			<point x="208" y="780" type="line"/>
			<point x="208" y="874" type="line"/>
			<point x="321" y="874" type="line"/>
			<point x="454" y="816" type="line"/>
			<point x="517" y="816" type="line" smooth="yes"/>
			<point x="550" y="816"/>
			<point x="566" y="832"/>
			<point x="566" y="864" type="curve" smooth="yes"/>
			<point x="566" y="1035" type="line"/>
			<point x="454" y="1035" type="line"/>
			<point x="454" y="910" type="line"/>
			<point x="321" y="972" type="line"/>
			<point x="169" y="972" type="line" smooth="yes"/>
			<point x="122" y="972"/>
			<point x="98" y="945"/>
		</contour>
		<component base="qu-khmer"/>
	</outline>
</glyph>
<glyph name="iMark-khmer" format="2">
	<advance width="0"/>
	<unicode hex="17B7"/>
	<anchor x="-100" y="732" name="_topright"/>
	<outline>
		<contour>
			<point x="-540" y="820" type="line"/>
			<point x="-100" y="820" type="line"/>
			<point x="-100" y="864" type="line"/>
			<point x="-222" y="936" type="line"/>
			<point x="-540" y="936" type="line"/>
		</contour>
	</outline>
</glyph>
<glyph name="uMark-khmer" format="2">
	<advance width="0"/>
	<unicode hex="17BB"/>
	<anchor x="-100" y="0" name="_bottomright"/>
	<outline>
		<contour>
			<point x="-216" y="-330" type="line"/>
			<point x="-100" y="-330" type="line"/>
			<point x="-100" y="-102" type="line" smooth="yes"/>
			<point x="-100" y="-67"/>
			<point x="-119" y="-50"/>
			<point x="-158" y="-50" type="curve" smooth="yes"/>
			<point x="-274" y="-50" type="line"/>
			<point x="-274" y="-122" type="line"/>
			<point x="-216" y="-122" type="line"/>
		</contour>
	</outline>
</glyph>
<glyph name="kakabat-khmer" format="2">
	<advance width="0"/>
	<unicode hex="17CE"/>
	<anchor x="-318" y="732" name="_top"/>
	<outline>
		<contour>
			<point x="-364" y="810" type="line"/>
			<point x="-272" y="810" type="line"/>
			<point x="-272" y="1046" type="line"/>
			<point x="-364" y="1046" type="line"/>
		</contour>
		<contour>
			<point x="-475" y="885" type="line"/>
			<point x="-408" y="885" type="line"/>
			<point x="-338" y="924" type="line"/>
			<point x="-338" y="971" type="line"/>
			<point x="-475" y="971" type="line"/>
		</contour>
		<contour>
			<point x="-298" y="885" type="line"/>
			<point x="-161" y="885" type="line"/>
			<point x="-161" y="971" type="line"/>
			<point x="-228" y="971" type="line"/>
			<point x="-298" y="931" type="line"/>
		</contour>
	</outline>
</glyph>
<glyph name="ahsda-khmer" format="2">
	<advance width="0"/>
	<unicode hex="17CF"/>
	<anchor x="-274" y="732" name="_top"/>
	<outline>
		<contour>
			<point x="-410" y="820" type="curve" smooth="yes"/>
			<point x="-352" y="820" type="line"/>
			<point x="-274" y="863" type="line"/>
			<point x="-196" y="820" type="line"/>
			<point x="-138" y="820" type="line" smooth="yes"/>
			<point x="-114" y="820"/>
			<point x="-100" y="834"/>
			<point x="-100" y="858" type="curve" smooth="yes"/>
			<point x="-100" y="920" type="line"/>
			<point x="-206" y="920" type="line"/>
			<point x="-206" y="884" type="line"/>
			<point x="-274" y="920" type="line"/>
			<point x="-342" y="884" type="line"/>
			<point x="-342" y="960" type="line"/>
			<point x="-151" y="960" type="line" smooth="yes"/>
			<point x="-117" y="960"/>
			<point x="-100" y="977"/>
			<point x="-100" y="1011" type="curve" smooth="yes"/>
			<point x="-100" y="1076" type="line"/>
			<point x="-206" y="1076" type="line"/>
			<point x="-206" y="1026" type="line"/>
			<point x="-290" y="1036" type="line"/>
			<point x="-397" y="1036" type="line" smooth="yes"/>
			<point x="-431" y="1036"/>
			<point x="-448" y="1020"/>
			<point x="-448" y="978" type="curve" smooth="yes"/>
			<point x="-448" y="858" type="line" smooth="yes"/>
			<point x="-448" y="834"/>
			<point x="-434" y="820"/>
		</contour>
	</outline>
</glyph>
<glyph name="coeng-khmer" format="2">
	<advance width="0"/>
	<unicode hex="17D2"/>
	<anchor x="-255" y="0" name="_bottom"/>
	<outline>
		<contour>
			<point x="-301" y="-330" type="line"/>
			<point x="-209" y="-330" type="line"/>
			<point x="-209" y="-230" type="line"/>
			<point x="-100" y="-230" type="line"/>
			<point x="-100" y="-150" type="line"/>
			<point x="-209" y="-150" type="line"/>
			<point x="-209" y="-50" type="line"/>
			<point x="-301" y="-50" type="line"/>
			<point x="-301" y="-150" type="line"/>
			<point x="-410" y="-150" type="line"/>
			<point x="-410" y="-230" type="line"/>
			<point x="-301" y="-230" type="line"/>
		</contour>
	</outline>
</glyph>
<glyph name="bariyoosan-khmer" format="2">
	<advance width="848"/>
	<unicode hex="17D5"/>
	<outline>
		<contour>
			<point x="636" y="0" type="line"/>
			<point x="750" y="0" type="line"/>
			<point x="750" y="730" type="line"/>
			<point x="636" y="730" type="line"/>
		</contour>
		<component base="khan-khmer"/>
	</outline>
</glyph>
<glyph name="koomuut-khmer" format="2">
	<advance width="1205"/>
	<unicode hex="17DA"/>
	<outline>
		<contour>
			<point x="147" y="62" type="curve" smooth="yes"/>
			<point x="472" y="62" type="line"/>
			<point x="590" y="428" type="line"/>
			<point x="566" y="429" type="line"/>
			<point x="654" y="113" type="line"/>
			<point x="747" y="113" type="line"/>
			<point x="838" y="395" type="line"/>
			<point x="824" y="396" type="line"/>
			<point x="893" y="153" type="line"/>
			<point x="975" y="153" type="line"/>
			<point x="1059" y="345" type="line"/>
			<point x="1156" y="345" type="line"/>
			<point x="1175" y="429" type="line"/>
			<point x="1008" y="429" type="line"/>
			<point x="936" y="250" type="line"/>
			<point x="955" y="250" type="line"/>
			<point x="877" y="519" type="line"/>
			<point x="791" y="519" type="line"/>
			<point x="698" y="217" type="line"/>
			<point x="729" y="217" type="line"/>
			<point x="630" y="559" type="line"/>
			<point x="531" y="559" type="line"/>
			<point x="406" y="154" type="line"/>
			<point x="220" y="154" type="line"/>
			<point x="220" y="548" type="line"/>
			<point x="328" y="548" type="line"/>
			<point x="328" y="448" type="line"/>
			<point x="415" y="448" type="line"/>
			<point x="415" y="592" type="line"/>
			<point x="415" y="623"/>
			<point x="397" y="640"/>
			<point x="365" y="640" type="curve"/>
			<point x="148" y="640" type="line" smooth="yes"/>
			<point x="116" y="640"/>
			<point x="98" y="623"/>
			<point x="98" y="592" type="curve" smooth="yes"/>
			<point x="98" y="110" type="line" smooth="yes"/>
			<point x="98" y="78"/>
			<point x="114" y="62"/>
		</contour>
	</outline>
</glyph>
<glyph name="atthacan-khmer" format="2">
	<advance width="0"/>
	<unicode hex="17DD"/>
	<anchor x="-332" y="732" name="_top"/>
	<outline>
		<contour>
			<point x="-538" y="790" type="line"/>
			<point x="-490" y="823"/>
			<point x="-427" y="840"/>
			<point x="-347" y="840" type="curve" smooth="yes"/>
			<point x="-317" y="840" type="line" smooth="yes"/>
			<point x="-237" y="840"/>
			<point x="-175" y="823"/>
			<point x="-126" y="790" type="curve"/>
			<point x="-120" y="790" type="line"/>
			<point x="-100" y="866" type="line"/>
			<point x="-150" y="916"/>
			<point x="-228" y="936"/>
			<point x="-322" y="936" type="curve" smooth="yes"/>
			<point x="-342" y="936" type="line" smooth="yes"/>
			<point x="-436" y="936"/>
			<point x="-515" y="916"/>
			<point x="-564" y="866" type="curve"/>
			<point x="-544" y="790" type="line"/>
		</contour>
	</outline>
</glyph>
<glyph name="one-khmer" format="2">
	<advance width="678"/>
	<unicode hex="17E1"/>
	<outline>
		<contour>
			<point x="179" y="0" type="line"/>
			<point x="531" y="0" type="line" smooth="yes"/>
			<point x="564" y="0"/>
			<point x="580" y="16"/>
			<point x="580" y="49" type="curve" smooth="yes"/>
			<point x="580" y="684" type="line" smooth="yes"/>
			<point x="580" y="715"/>
			<point x="562" y="732"/>
			<point x="530" y="732" type="curve" smooth="yes"/>
			<point x="132" y="732" type="line" smooth="yes"/>
			<point x="100" y="732"/>
			<point x="82" y="715"/>
			<point x="82" y="684" type="curve" smooth="yes"/>
			<point x="82" y="296" type="line"/>
			<point x="202" y="296" type="line"/>
			<point x="268" y="315"/>
			<point x="305" y="363"/>
			<point x="305" y="430" type="curve" smooth="yes"/>
			<point x="305" y="490"/>
			<point x="270" y="532"/>
			<point x="204" y="540" type="curve"/>
			<point x="204" y="634" type="line"/>
			<point x="458" y="634" type="line"/>
			<point x="458" y="98" type="line"/>
			<point x="209" y="98" type="line"/>
		</contour>
		<contour>
			<point x="202" y="349" type="curve"/>
			<point x="202" y="488" type="line"/>
			<point x="232" y="484"/>
			<point x="249" y="463"/>
			<point x="249" y="428" type="curve" smooth="yes"/>
			<point x="249" y="390"/>
			<point x="230" y="363"/>
		</contour>
	</outline>
</glyph>
<glyph name="four-khmer" format="2">
	<advance width="716"/>
	<unicode hex="17E4"/>
	<outline>
		<contour>
			<point x="148" y="0" type="curve" smooth="yes"/>
			<point x="586" y="0" type="line" smooth="yes"/>
			<point x="619" y="0"/>
			<point x="636" y="16"/>
			<point x="636" y="48" type="curve" smooth="yes"/>
			<point x="636" y="98" type="line"/>
			<point x="543" y="251" type="line"/>
			<point x="543" y="349" type="line"/>
			<point x="627" y="349" type="line"/>
			<point x="647" y="433" type="line"/>
			<point x="509" y="433" type="line" smooth="yes"/>
			<point x="461" y="433"/>
			<point x="437" y="406"/>
			<point x="437" y="351" type="curve" smooth="yes"/>
			<point x="437" y="242" type="line"/>
			<point x="525" y="96" type="line"/>
			<point x="220" y="96" type="line"/>
			<point x="220" y="510" type="line" smooth="yes"/>
			<point x="220" y="597"/>
			<point x="251" y="634"/>
			<point x="324" y="634" type="curve" smooth="yes"/>
			<point x="347" y="634" type="line"/>
			<point x="496" y="580" type="line"/>
			<point x="560" y="580" type="line" smooth="yes"/>
			<point x="593" y="580"/>
			<point x="610" y="596"/>
			<point x="610" y="628" type="curve" smooth="yes"/>
			<point x="610" y="810" type="line"/>
			<point x="496" y="810" type="line"/>
			<point x="496" y="676" type="line"/>
			<point x="347" y="732" type="line"/>
			<point x="324" y="732" type="line" smooth="yes"/>
			<point x="166" y="732"/>
			<point x="98" y="667"/>
			<point x="98" y="514" type="curve" smooth="yes"/>
			<point x="98" y="48" type="line" smooth="yes"/>
			<point x="98" y="16"/>
			<point x="115" y="0"/>
		</contour>
	</outline>
</glyph>
<glyph name="six-khmer" format="2">
	<advance width="714"/>
	<unicode hex="17E6"/>
	<outline>
		<contour>
			<point x="146" y="0" type="curve" smooth="yes"/>
			<point x="567" y="0" type="line" smooth="yes"/>
			<point x="600" y="0"/>
			<point x="616" y="16"/>
			<point x="616" y="49" type="curve" smooth="yes"/>
			<point x="616" y="514" type="line" smooth="yes"/>
			<point x="616" y="667"/>
			<point x="548" y="732"/>
			<point x="390" y="732" type="curve" smooth="yes"/>
			<point x="367" y="732" type="line"/>
			<point x="218" y="676" type="line"/>
			<point x="218" y="810" type="line"/>
			<point x="104" y="810" type="line"/>
			<point x="104" y="629" type="line" smooth="yes"/>
			<point x="104" y="597"/>
			<point x="121" y="581"/>
			<point x="154" y="581" type="curve" smooth="yes"/>
			<point x="218" y="581" type="line"/>
			<point x="367" y="634" type="line"/>
			<point x="390" y="634" type="line" smooth="yes"/>
			<point x="463" y="634"/>
			<point x="494" y="597"/>
			<point x="494" y="510" type="curve" smooth="yes"/>
			<point x="494" y="98" type="line"/>
			<point x="216" y="98" type="line"/>
			<point x="216" y="311" type="line"/>
			<point x="344" y="311" type="line"/>
			<point x="360" y="403" type="line"/>
			<point x="136" y="403" type="line" smooth="yes"/>
			<point x="112" y="403"/>
			<point x="98" y="389"/>
			<point x="98" y="365" type="curve" smooth="yes"/>
			<point x="98" y="49" type="line" smooth="yes"/>
			<point x="98" y="16"/>
			<point x="114" y="0"/>
		</contour>
	</outline>
</glyph>
<glyph name="emdash" format="2">
	<advance width="816"/>
	<unicode hex="2014"/>
	<outline>
		<contour>
			<point x="817" y="308" type="line"/>
			<point x="817" y="407" type="line"/>
			<point x="-1" y="407" type="line"/>
			<point x="-1" y="308" type="line"/>
		</contour>
	</outline>
</glyph>
<glyph name="bullet" format="2">
	<advance width="368"/>
	<unicode hex="2022"/>
	<outline>
		<contour>
			<point x="89" y="394" type="curve" smooth="yes"/>
			<point x="89" y="305" type="line" smooth="yes"/>
			<point x="89" y="254"/>
			<point x="114" y="230"/>
			<point x="173" y="230" type="curve" smooth="yes"/>
			<point x="194" y="230" type="line" smooth="yes"/>
			<point x="253" y="230"/>
			<point x="278" y="254"/>
			<point x="278" y="305" type="curve" smooth="yes"/>
			<point x="278" y="394" type="line" smooth="yes"/>
			<point x="278" y="446"/>
			<point x="253" y="469"/>
			<point x="194" y="469" type="curve" smooth="yes"/>
			<point x="173" y="469" type="line" smooth="yes"/>
			<point x="114" y="469"/>
			<point x="89" y="446"/>
		</contour>
	</outline>
</glyph>
<glyph name="foursuperior" format="2">
	<advance width="483"/>
	<unicode hex="2074"/>
	<outline>
		<contour>
			<point x="269" y="311" type="line"/>
			<point x="369" y="311" type="line"/>
			<point x="369" y="420" type="line"/>
			<point x="363" y="414" type="line"/>
			<point x="444" y="414" type="line"/>
			<point x="444" y="496" type="line"/>
			<point x="363" y="496" type="line"/>
			<point x="369" y="491" type="line"/>
			<point x="369" y="795" type="line"/>
			<point x="261" y="797" type="line" smooth="yes"/>
			<point x="202" y="797"/>
			<point x="190" y="777"/>
			<point x="163" y="729" type="curve" smooth="yes"/>
			<point x="21" y="480" type="line"/>
			<point x="21" y="414" type="line"/>
			<point x="275" y="414" type="line"/>
			<point x="269" y="420" type="line"/>
		</contour>
		<contour>
			<point x="119" y="491" type="line"/>
			<point x="244" y="706" type="line" smooth="yes"/>
			<point x="247" y="710"/>
			<point x="248" y="713"/>
			<point x="255" y="713" type="curve" smooth="yes"/>
			<point x="269" y="713" type="line"/>
			<point x="269" y="491" type="line"/>
			<point x="275" y="496" type="line"/>
			<point x="111" y="496" type="line"/>
		</contour>
	</outline>
</glyph>
<glyph name="uni20BA" format="2">
	<advance width="659"/>
	<unicode hex="20BA"/>
	<outline>
		<contour>
			<point x="128" y="-6" type="line"/>
			<point x="432" y="-7" type="line" smooth="yes"/>
			<point x="552" y="-8"/>
			<point x="610" y="40"/>
			<point x="610" y="151" type="curve" smooth="yes"/>
			<point x="610" y="321" type="line"/>
			<point x="482" y="321" type="line"/>
			<point x="482" y="119" type="line" smooth="yes"/>
			<point x="482" y="110"/>
			<point x="478" y="106"/>
			<point x="469" y="106" type="curve" smooth="yes"/>
			<point x="232" y="106" type="line"/>
			<point x="254" y="84" type="line"/>
			<point x="254" y="311" type="line"/>
			<point x="242" y="298" type="line"/>
			<point x="421" y="364" type="line"/>
			<point x="421" y="436" type="line"/>
			<point x="242" y="370" type="line"/>
			<point x="254" y="353" type="line"/>
			<point x="254" y="452" type="line"/>
			<point x="242" y="440" type="line"/>
			<point x="421" y="506" type="line"/>
			<point x="421" y="578" type="line"/>
			<point x="242" y="512" type="line"/>
			<point x="254" y="494" type="line"/>
			<point x="254" y="749" type="line"/>
			<point x="128" y="749" type="line"/>
			<point x="128" y="463" type="line"/>
			<point x="140" y="475" type="line"/>
			<point x="43" y="439" type="line"/>
			<point x="43" y="367" type="line"/>
			<point x="140" y="402" type="line"/>
			<point x="128" y="415" type="line"/>
			<point x="128" y="321" type="line"/>
			<point x="140" y="333" type="line"/>
			<point x="43" y="298" type="line"/>
			<point x="43" y="226" type="line"/>
			<point x="140" y="261" type="line"/>
			<point x="128" y="273" type="line"/>
		</contour>
	</outline>
</glyph>
<glyph name="uni2113" format="2">
	<advance width="559"/>
	<unicode hex="2113"/>
	<outline>
		<contour>
			<point x="304" y="-9" type="curve" smooth="yes"/>
			<point x="526" y="-9" type="line"/>
			<point x="526" y="104" type="line"/>
			<point x="268" y="104" type="line" smooth="yes"/>
			<point x="259" y="104"/>
			<point x="254" y="108"/>
			<point x="254" y="117" type="curve" smooth="yes"/>
			<point x="254" y="725" type="line" smooth="yes"/>
			<point x="254" y="735"/>
			<point x="259" y="739"/>
			<point x="268" y="739" type="curve" smooth="yes"/>
			<point x="384" y="739" type="line" smooth="yes"/>
			<point x="392" y="739"/>
			<point x="397" y="735"/>
			<point x="397" y="725" type="curve" smooth="yes"/>
			<point x="397" y="511" type="line" smooth="yes"/>
			<point x="397" y="499"/>
			<point x="393" y="497"/>
			<point x="381" y="488" type="curve" smooth="yes"/>
			<point x="12" y="240" type="line"/>
			<point x="66" y="145" type="line"/>
			<point x="425" y="385" type="line" smooth="yes"/>
			<point x="490" y="428"/>
			<point x="526" y="456"/>
			<point x="526" y="529" type="curve" smooth="yes"/>
			<point x="526" y="693" type="line" smooth="yes"/>
			<point x="526" y="804"/>
			<point x="469" y="852"/>
			<point x="355" y="852" type="curve" smooth="yes"/>
			<point x="297" y="852" type="line" smooth="yes"/>
			<point x="184" y="852"/>
			<point x="126" y="804"/>
			<point x="126" y="693" type="curve" smooth="yes"/>
			<point x="126" y="149" type="line" smooth="yes"/>
			<point x="126" y="39"/>
			<point x="184" y="-9"/>
		</contour>
	</outline>
</glyph>
<glyph name="estimated" format="2">
	<advance width="628"/>
	<unicode hex="212E"/>
	<outline>
		<contour>
			<point x="317" y="27" type="curve" smooth="yes"/>
			<point x="262" y="27"/>
			<point x="202" y="52"/>
			<point x="167" y="99" type="curve"/>
			<point x="167" y="320" type="line"/>
			<point x="573" y="320" type="line"/>
			<point x="573" y="521"/>
			<point x="447" y="621"/>
			<point x="322" y="621" type="curve" smooth="yes"/>
			<point x="145" y="621"/>
			<point x="56" y="460"/>
			<point x="56" y="303" type="curve" smooth="yes"/>
			<point x="56" y="124"/>
			<point x="161" y="-9"/>
			<point x="314" y="-9" type="curve" smooth="yes"/>
			<point x="393" y="-9"/>
			<point x="478" y="29"/>
			<point x="534" y="97" type="curve"/>
			<point x="510" y="122" type="line"/>
			<point x="462" y="63"/>
			<point x="391" y="27"/>
		</contour>
		<contour>
			<point x="322" y="585" type="curve" smooth="yes"/>
			<point x="372" y="585"/>
			<point x="420" y="568"/>
			<point x="455" y="532" type="curve"/>
			<point x="455" y="356" type="line"/>
			<point x="167" y="356" type="line"/>
			<point x="167" y="510" type="line"/>
			<point x="206" y="564"/>
			<point x="267" y="585"/>
		</contour>
	</outline>
</glyph>
<glyph name="summation" format="2">
	<advance width="546"/>
	<unicode hex="2211"/>
	<outline>
		<contour>
			<point x="25" y="91" type="line"/>
			<point x="25" y="0" type="line"/>
			<point x="510" y="0" type="line"/>
			<point x="510" y="110" type="line"/>
			<point x="124" y="110" type="line"/>
			<point x="142" y="64" type="line"/>
			<point x="362" y="410" type="line"/>
			<point x="163" y="723" type="line"/>
			<point x="140" y="683" type="line"/>
			<point x="510" y="683" type="line"/>
			<point x="510" y="793" type="line"/>
			<point x="36" y="793" type="line"/>
			<point x="36" y="701" type="line"/>
			<point x="244" y="383" type="line"/>
			<point x="242" y="429" type="line"/>
		</contour>
	</outline>
</glyph>
<glyph name="greaterequal" format="2">
	<advance width="585"/>
	<unicode hex="2265"/>
	<outline>
		<contour>
			<point x="524" y="351" type="line"/>
			<point x="524" y="429" type="line"/>
			<point x="62" y="637" type="line"/>
			<point x="62" y="533" type="line"/>
			<point x="461" y="365" type="line"/>
			<point x="461" y="414" type="line"/>
			<point x="62" y="245" type="line"/>
			<point x="62" y="142" type="line"/>
		</contour>
		<contour>
			<point x="512" y="27" type="line"/>
			<point x="512" y="117" type="line"/>
			<point x="62" y="117" type="line"/>
			<point x="62" y="27" type="line"/>
		</contour>
	</outline>
</glyph>
<glyph name="_kaHairLiga-khmer" format="2">
	<advance width="1068"/>
	<anchor x="98" y="540" name="_hair"/>
	<anchor x="940" y="732" name="auStroke"/>
	<outline>
		<contour>
			<point x="818" y="0" type="line"/>
			<point x="940" y="0" type="line"/>
			<point x="940" y="674" type="line" smooth="yes"/>
			<point x="940" y="711"/>
			<point x="919" y="732"/>
			<point x="881" y="732" type="curve" smooth="yes"/>
			<point x="514" y="732" type="line"/>
			<point x="462" y="680" type="line"/>
			<point x="410" y="732" type="line"/>
			<point x="109" y="732" type="line"/>
			<point x="60" y="636" type="line"/>
			<point x="63" y="603"/>
			<point x="82" y="559"/>
			<point x="108" y="531" type="curve"/>
			<point x="175" y="550" type="line"/>
			<point x="159" y="567"/>
			<point x="138" y="599"/>
			<point x="135" y="628" type="curve"/>
			<point x="411" y="628" type="line"/>
			<point x="462" y="590" type="line"/>
			<point x="513" y="628" type="line"/>
			<point x="818" y="628" type="line"/>
		</contour>
	</outline>
</glyph>
<glyph name="_part.kaHair-khmer" format="2">
	<advance width="684"/>
	<anchor x="98" y="540" name="_hair"/>
	<outline>
		<contour>
			<point x="108" y="531" type="curve"/>
			<point x="175" y="550" type="line"/>
			<point x="159" y="567"/>
			<point x="138" y="599"/>
			<point x="135" y="628" type="curve"/>
			<point x="291" y="628" type="line"/>
			<point x="342" y="590" type="line"/>
			<point x="393" y="628" type="line"/>
			<point x="582" y="628" type="line"/>
			<point x="614" y="732" type="line"/>
			<point x="394" y="732" type="line"/>
			<point x="342" y="680" type="line"/>
			<point x="290" y="732" type="line"/>
			<point x="109" y="732" type="line"/>
			<point x="60" y="636" type="line"/>
			<point x="63" y="603"/>
			<point x="82" y="559"/>
		</contour>
	</outline>
</glyph>
<glyph name="ba-khmer.alt" format="2">
	<advance width="684"/>
	<anchor x="342" y="732" name="top"/>
	<anchor x="586" y="732" name="topright"/>
	<anchor x="586" y="0" name="bottomright"/>
	<anchor x="342" y="0" name="bottom"/>
	<outline>
		<contour>
			<point x="98" y="510" type="line"/>
			<point x="98" y="49" type="line" smooth="yes"/>
			<point x="98" y="16"/>
			<point x="114" y="0"/>
			<point x="146" y="0" type="curve" smooth="yes"/>
			<point x="223" y="0" type="line"/>
			<point x="464" y="114" type="line"/>
			<point x="464" y="0" type="line"/>
			<point x="586" y="0" type="line"/>
			<point x="586" y="511" type="line"/>
			<point x="464" y="511" type="line"/>
			<point x="464" y="214" type="line"/>
			<point x="220" y="95" type="line"/>
			<point x="220" y="510" type="line"/>
		</contour>
	</outline>
</glyph>
<glyph name="ba-khmer.post" format="2">
	<advance width="318"/>
	<anchor x="0" y="732" name="top"/>
	<anchor x="220" y="732" name="topright"/>
	<anchor x="220" y="-330" name="bottomright"/>
	<anchor x="0" y="-330" name="bottom"/>
	<outline>
		<contour>
			<point x="-214" y="-330" type="line"/>
			<point x="-98" y="-330" type="line"/>
			<point x="0" y="-258" type="line"/>
			<point x="98" y="-330" type="line"/>
			<point x="220" y="-330" type="line"/>
			<point x="220" y="521" type="line"/>
			<point x="171" y="550"/>
			<point x="129" y="585"/>
			<point x="106" y="628" type="curve"/>
			<point x="228" y="628" type="line"/>
			<point x="260" y="732" type="line"/>
			<point x="62" y="732" type="line"/>
			<point x="22" y="635" type="line"/>
			<point x="29" y="596"/>
			<point x="64" y="543"/>
			<point x="98" y="514" type="curve"/>
			<point x="98" y="-237" type="line"/>
			<point x="7" y="-173" type="line"/>
			<point x="-7" y="-173" type="line"/>
			<point x="-98" y="-237" type="line"/>
			<point x="-98" y="-119" type="line"/>
			<point x="-52" y="-119" type="line"/>
			<point x="-52" y="-50" type="line"/>
			<point x="-214" y="-50" type="line"/>
		</contour>
	</outline>
</glyph>
<glyph name="cha_aaSign-khmer" format="2">
	<advance width="1038"/>
	<anchor x="586" y="0" name="bottomright"/>
	<anchor x="342" y="732" name="top"/>
	<anchor x="586" y="732" name="topright"/>
	<anchor x="939" y="732" name="auStroke"/>
	<anchor x="342" y="0" name="bottom"/>
	<outline>
		<contour>
			<point x="100" y="0" type="curve"/>
			<point x="220" y="0" type="line"/>
			<point x="220" y="520" type="line"/>
			<point x="164" y="551"/>
			<point x="135" y="586"/>
			<point x="127" y="628" type="curve"/>
			<point x="411" y="628" type="line"/>
			<point x="462" y="590" type="line"/>
			<point x="513" y="628" type="line"/>
			<point x="818" y="628" type="line"/>
			<point x="818" y="0" type="line"/>
			<point x="940" y="0" type="line"/>
			<point x="940" y="674" type="line" smooth="yes"/>
			<point x="940" y="711"/>
			<point x="919" y="732"/>
			<point x="881" y="732" type="curve" smooth="yes"/>
			<point x="514" y="732" type="line"/>
			<point x="462" y="681" type="line"/>
			<point x="410" y="732" type="line"/>
			<point x="86" y="732" type="line"/>
			<point x="47" y="637" type="line"/>
			<point x="50" y="593"/>
			<point x="69" y="549"/>
			<point x="98" y="514" type="curve"/>
			<point x="98" y="254" type="line"/>
			<point x="45" y="244"/>
			<point x="15" y="205"/>
			<point x="15" y="146" type="curve" smooth="yes"/>
			<point x="15" y="82"/>
			<point x="47" y="37"/>
		</contour>
		<contour>
			<point x="110" y="202" type="curve"/>
			<point x="110" y="61" type="line"/>
			<point x="81" y="87"/>
			<point x="72" y="121"/>
			<point x="72" y="146" type="curve" smooth="yes"/>
			<point x="72" y="174"/>
			<point x="85" y="196"/>
		</contour>
		<contour>
			<point x="484" y="0" type="line"/>
			<point x="586" y="0" type="line"/>
			<point x="586" y="513" type="line"/>
			<point x="466" y="513" type="line"/>
			<point x="403" y="494"/>
			<point x="367" y="446"/>
			<point x="367" y="379" type="curve" smooth="yes"/>
			<point x="367" y="319"/>
			<point x="401" y="277"/>
			<point x="464" y="269" type="curve"/>
			<point x="464" y="113" type="line"/>
			<point x="205" y="235" type="line"/>
			<point x="205" y="131" type="line"/>
		</contour>
		<contour>
			<point x="466" y="460" type="curve"/>
			<point x="466" y="321" type="line"/>
			<point x="439" y="325"/>
			<point x="423" y="346"/>
			<point x="423" y="381" type="curve" smooth="yes"/>
			<point x="423" y="419"/>
			<point x="440" y="446"/>
		</contour>
	</outline>
</glyph>
<glyph name="cho-khmer.post" format="2">
	<advance width="318"/>
	<anchor x="0" y="732" name="top"/>
	<anchor x="220" y="732" name="topright"/>
	<anchor x="220" y="-330" name="bottomright"/>
	<anchor x="0" y="-330" name="bottom"/>
	<outline>
		<contour>
			<point x="-608" y="-98" type="curve" smooth="yes"/>
			<point x="-608" y="-330" type="line"/>
			<point x="-496" y="-330" type="line" smooth="yes"/>
			<point x="-443" y="-330"/>
			<point x="-411" y="-302"/>
			<point x="-411" y="-251" type="curve" smooth="yes"/>
			<point x="-411" y="-202"/>
			<point x="-445" y="-172"/>
			<point x="-492" y="-162" type="curve"/>
			<point x="-492" y="-134" type="line"/>
			<point x="-370" y="-134" type="line"/>
			<point x="-370" y="-281" type="line" smooth="yes"/>
			<point x="-370" y="-314"/>
			<point x="-354" y="-330"/>
			<point x="-322" y="-330" type="curve" smooth="yes"/>
			<point x="-140" y="-330" type="line" smooth="yes"/>
			<point x="-107" y="-330"/>
			<point x="-87" y="-316"/>
			<point x="-79" y="-289" type="curve"/>
			<point x="-75" y="-289" type="line"/>
			<point x="-67" y="-316"/>
			<point x="-47" y="-330"/>
			<point x="-14" y="-330" type="curve" smooth="yes"/>
			<point x="171" y="-330" type="line" smooth="yes"/>
			<point x="204" y="-330"/>
			<point x="220" y="-314"/>
			<point x="220" y="-281" type="curve" smooth="yes"/>
			<point x="220" y="521" type="line"/>
			<point x="171" y="550"/>
			<point x="129" y="585"/>
			<point x="106" y="628" type="curve"/>
			<point x="228" y="628" type="line"/>
			<point x="260" y="732" type="line"/>
			<point x="62" y="732" type="line"/>
			<point x="22" y="635" type="line"/>
			<point x="29" y="596"/>
			<point x="64" y="543"/>
			<point x="98" y="514" type="curve"/>
			<point x="98" y="-244" type="line"/>
			<point x="-20" y="-244" type="line"/>
			<point x="-20" y="-50" type="line"/>
			<point x="-136" y="-50" type="line"/>
			<point x="-136" y="-244" type="line"/>
			<point x="-254" y="-244" type="line"/>
			<point x="-254" y="-99" type="line" smooth="yes"/>
			<point x="-254" y="-66"/>
			<point x="-270" y="-50"/>
			<point x="-303" y="-50" type="curve" smooth="yes"/>
			<point x="-558" y="-50" type="line" smooth="yes"/>
			<point x="-590" y="-50"/>
			<point x="-608" y="-67"/>
		</contour>
		<contour>
			<point x="-495" y="-289" type="curve"/>
			<point x="-495" y="-203" type="line"/>
			<point x="-470" y="-212"/>
			<point x="-457" y="-227"/>
			<point x="-457" y="-251" type="curve" smooth="yes"/>
			<point x="-457" y="-275"/>
			<point x="-471" y="-289"/>
		</contour>
	</outline>
</glyph>
<glyph name="da-khmer.below.ro" format="2">
	<advance width="0"/>
	<anchor x="-342" y="0" name="_bottom"/>
	<anchor x="-342" y="-330" name="bottom"/>
	<anchor x="-134" y="-330" name="bottomright"/>
	<outline>
		<contour>
			<point x="-550" y="-330" type="line"/>
			<point x="-439" y="-330" type="line" smooth="yes"/>
			<point x="-387" y="-330"/>
			<point x="-357" y="-303"/>
			<point x="-357" y="-257" type="curve" smooth="yes"/>
			<point x="-357" y="-212"/>
			<point x="-385" y="-186"/>
			<point x="-434" y="-176" type="curve"/>
			<point x="-434" y="-136" type="line"/>
			<point x="-250" y="-136" type="line"/>
			<point x="-250" y="-330" type="line"/>
			<point x="-134" y="-330" type="line"/>
			<point x="-134" y="-99" type="line" smooth="yes"/>
			<point x="-134" y="-66"/>
			<point x="-150" y="-50"/>
			<point x="-183" y="-50" type="curve" smooth="yes"/>
			<point x="-501" y="-50" type="line" smooth="yes"/>
			<point x="-534" y="-50"/>
			<point x="-550" y="-66"/>
			<point x="-550" y="-99" type="curve" smooth="yes"/>
		</contour>
		<contour>
			<point x="-435" y="-291" type="curve"/>
			<point x="-435" y="-213" type="line"/>
			<point x="-412" y="-218"/>
			<point x="-399" y="-236"/>
			<point x="-399" y="-257" type="curve" smooth="yes"/>
			<point x="-399" y="-278"/>
			<point x="-412" y="-291"/>
		</contour>
	</outline>
</glyph>
<glyph name="iMark_toandakhiat-khmer" format="2">
	<advance width="0"/>
	<anchor x="-145" y="732" name="_topright"/>
	<outline>
		<contour>
			<point x="-585" y="820" type="line"/>
			<point x="-145" y="820" type="line"/>
			<point x="-145" y="859" type="line"/>
			<point x="-191" y="879" type="line"/>
			<point x="-191" y="901" type="line" smooth="yes"/>
			<point x="-191" y="911"/>
			<point x="-186" y="915"/>
			<point x="-176" y="915" type="curve" smooth="yes"/>
			<point x="-137" y="915" type="line" smooth="yes"/>
			<point x="-116" y="915"/>
			<point x="-100" y="931"/>
			<point x="-100" y="952" type="curve" smooth="yes"/>
			<point x="-100" y="1036" type="line"/>
			<point x="-194" y="1036" type="line"/>
			<point x="-194" y="968" type="line"/>
			<point x="-170" y="985" type="line"/>
			<point x="-228" y="985" type="line" smooth="yes"/>
			<point x="-263" y="985"/>
			<point x="-285" y="965"/>
			<point x="-285" y="931" type="curve" smooth="yes"/>
			<point x="-285" y="868" type="line"/>
			<point x="-214" y="891" type="line"/>
			<point x="-330" y="936" type="line"/>
			<point x="-585" y="936" type="line"/>
		</contour>
	</outline>
</glyph>
<glyph name="ka-khmer.half" format="2">
	<advance width="684"/>
	<anchor x="98" y="540" name="hair"/>
	<anchor x="342" y="732" name="top"/>
	<anchor x="586" y="732" name="topright"/>
	<anchor x="586" y="0" name="bottomright"/>
	<anchor x="342" y="0" name="bottom"/>
	<outline>
		<contour>
			<point x="98" y="464" type="curve" smooth="yes"/>
			<point x="98" y="0" type="line"/>
			<point x="220" y="0" type="line"/>
			<point x="220" y="415" type="line"/>
			<point x="464" y="415" type="line"/>
			<point x="464" y="0" type="line"/>
			<point x="586" y="0" type="line"/>
			<point x="586" y="464" type="line" smooth="yes"/>
			<point x="586" y="497"/>
			<point x="570" y="513"/>
			<point x="537" y="513" type="curve" smooth="yes"/>
			<point x="146" y="513" type="line" smooth="yes"/>
			<point x="114" y="513"/>
			<point x="98" y="497"/>
		</contour>
	</outline>
</glyph>
<glyph name="kakabat-khmer.small" format="2">
	<advance width="0"/>
	<anchor x="-247" y="912" name="_top"/>
	<outline>
		<contour>
			<point x="-288" y="962" type="line"/>
			<point x="-206" y="962" type="line"/>
			<point x="-206" y="1146" type="line"/>
			<point x="-288" y="1146" type="line"/>
		</contour>
		<contour>
			<point x="-394" y="1020" type="line"/>
			<point x="-321" y="1020" type="line"/>
			<point x="-246" y="1073" type="line"/>
			<point x="-246" y="1088" type="line"/>
			<point x="-394" y="1088" type="line"/>
		</contour>
		<contour>
			<point x="-248" y="1020" type="line"/>
			<point x="-100" y="1020" type="line"/>
			<point x="-100" y="1088" type="line"/>
			<point x="-173" y="1088" type="line"/>
			<point x="-248" y="1034" type="line"/>
		</contour>
	</outline>
</glyph>
<glyph name="muusikatoan-khmer.roLiga" format="2">
	<advance width="0"/>
	<anchor x="-294" y="732" name="_top"/>
	<outline>
		<contour>
			<point x="-173" y="820" type="line"/>
			<point x="-100" y="820" type="line"/>
			<point x="-100" y="1036" type="line"/>
			<point x="-210" y="1036" type="line"/>
			<point x="-210" y="940" type="line"/>
		</contour>
		<contour>
			<point x="-363" y="820" type="line"/>
			<point x="-290" y="820" type="line"/>
			<point x="-290" y="1036" type="line"/>
			<point x="-400" y="1036" type="line"/>
			<point x="-400" y="940" type="line"/>
		</contour>
	</outline>
</glyph>
<glyph name="nno-khmer.below.narrow2" format="2">
	<advance width="0"/>
	<anchor x="-98" y="0" name="_bottomright"/>
	<anchor x="-511" y="-330" name="bottom"/>
	<anchor x="-342" y="-330" name="bottomright"/>
	<outline>
		<contour>
			<point x="-914" y="-330" type="line"/>
			<point x="-802" y="-330" type="line" smooth="yes"/>
			<point x="-754" y="-330"/>
			<point x="-727" y="-303"/>
			<point x="-727" y="-257" type="curve" smooth="yes"/>
			<point x="-727" y="-212"/>
			<point x="-754" y="-186"/>
			<point x="-802" y="-176" type="curve"/>
			<point x="-802" y="-126" type="line"/>
			<point x="-680" y="-126" type="line"/>
			<point x="-680" y="-330" type="line"/>
			<point x="-576" y="-330" type="line"/>
			<point x="-511" y="-252" type="line"/>
			<point x="-446" y="-330" type="line"/>
			<point x="-342" y="-330" type="line"/>
			<point x="-342" y="-126" type="line"/>
			<point x="-220" y="-126" type="line"/>
			<point x="-220" y="-330" type="line"/>
			<point x="-108" y="-330" type="line"/>
			<point x="-108" y="-99" type="line" smooth="yes"/>
			<point x="-108" y="-66"/>
			<point x="-124" y="-50"/>
			<point x="-157" y="-50" type="curve" smooth="yes"/>
			<point x="-405" y="-50" type="line" smooth="yes"/>
			<point x="-438" y="-50"/>
			<point x="-454" y="-66"/>
			<point x="-454" y="-99" type="curve" smooth="yes"/>
			<point x="-454" y="-221" type="line"/>
			<point x="-504" y="-163" type="line"/>
			<point x="-518" y="-163" type="line"/>
			<point x="-568" y="-221" type="line"/>
			<point x="-568" y="-99" type="line" smooth="yes"/>
			<point x="-568" y="-66"/>
			<point x="-584" y="-50"/>
			<point x="-617" y="-50" type="curve" smooth="yes"/>
			<point x="-865" y="-50" type="line" smooth="yes"/>
			<point x="-898" y="-50"/>
			<point x="-914" y="-66"/>
			<point x="-914" y="-99" type="curve" smooth="yes"/>
		</contour>
		<contour>
			<point x="-803" y="-291" type="curve"/>
			<point x="-803" y="-214" type="line"/>
			<point x="-780" y="-219"/>
			<point x="-767" y="-236"/>
			<point x="-767" y="-257" type="curve" smooth="yes"/>
			<point x="-767" y="-278"/>
			<point x="-780" y="-291"/>
		</contour>
	</outline>
</glyph>
<glyph name="pha-khmer.below" format="2">
	<advance width="0"/>
	<anchor x="-342" y="0" name="_bottom"/>
	<anchor x="-342" y="-330" name="bottom"/>
	<anchor x="-119" y="-330" name="bottomright"/>
	<outline>
		<contour>
			<point x="-516" y="-330" type="curve" smooth="yes"/>
			<point x="-449" y="-330" type="line"/>
			<point x="-342" y="-272" type="line"/>
			<point x="-235" y="-330" type="line"/>
			<point x="-168" y="-330" type="line" smooth="yes"/>
			<point x="-135" y="-330"/>
			<point x="-119" y="-314"/>
			<point x="-119" y="-281" type="curve" smooth="yes"/>
			<point x="-119" y="-51" type="line"/>
			<point x="-230" y="-51" type="line" smooth="yes"/>
			<point x="-282" y="-51"/>
			<point x="-312" y="-78"/>
			<point x="-312" y="-124" type="curve" smooth="yes"/>
			<point x="-312" y="-169"/>
			<point x="-284" y="-195"/>
			<point x="-235" y="-195" type="curve"/>
			<point x="-235" y="-248" type="line"/>
			<point x="-337" y="-191" type="line"/>
			<point x="-347" y="-191" type="line"/>
			<point x="-449" y="-248" type="line"/>
			<point x="-449" y="-50" type="line"/>
			<point x="-565" y="-50" type="line"/>
			<point x="-565" y="-281" type="line" smooth="yes"/>
			<point x="-565" y="-314"/>
			<point x="-549" y="-330"/>
		</contour>
		<contour>
			<point x="-233" y="-156" type="line"/>
			<point x="-256" y="-156"/>
			<point x="-268" y="-144"/>
			<point x="-268" y="-124" type="curve" smooth="yes"/>
			<point x="-268" y="-104"/>
			<point x="-256" y="-92"/>
			<point x="-233" y="-92" type="curve"/>
		</contour>
	</outline>
</glyph>
<glyph name="sa-khmer.post2" format="2">
	<advance width="317"/>
	<anchor x="0" y="732" name="top"/>
	<anchor x="220" y="732" name="topright"/>
	<outline>
		<contour>
			<point x="20" y="115" type="line"/>
			<point x="305" y="115" type="line"/>
			<point x="305" y="207" type="line"/>
			<point x="20" y="207" type="line"/>
		</contour>
		<component base="yo-khmer.post2"/>
	</outline>
</glyph>
<glyph name="ta-khmer.below" format="2">
	<advance width="0"/>
	<anchor x="-342" y="0" name="_bottom"/>
	<anchor x="-342" y="-330" name="bottom"/>
	<anchor x="-119" y="-330" name="bottomright"/>
	<outline>
		<contour>
			<point x="-565" y="-330" type="line"/>
			<point x="-454" y="-330" type="line" smooth="yes"/>
			<point x="-402" y="-330"/>
			<point x="-372" y="-303"/>
			<point x="-372" y="-257" type="curve" smooth="yes"/>
			<point x="-372" y="-212"/>
			<point x="-400" y="-186"/>
			<point x="-449" y="-176" type="curve"/>
			<point x="-449" y="-136" type="line"/>
			<point x="-235" y="-136" type="line"/>
			<point x="-235" y="-330" type="line"/>
			<point x="-119" y="-330" type="line"/>
			<point x="-119" y="-99" type="line" smooth="yes"/>
			<point x="-119" y="-66"/>
			<point x="-135" y="-50"/>
			<point x="-168" y="-50" type="curve" smooth="yes"/>
			<point x="-516" y="-50" type="line" smooth="yes"/>
			<point x="-549" y="-50"/>
			<point x="-565" y="-66"/>
			<point x="-565" y="-99" type="curve" smooth="yes"/>
		</contour>
		<contour>
			<point x="-450" y="-291" type="curve"/>
			<point x="-450" y="-213" type="line"/>
			<point x="-427" y="-218"/>
			<point x="-414" y="-236"/>
			<point x="-414" y="-257" type="curve" smooth="yes"/>
			<point x="-414" y="-278"/>
			<point x="-427" y="-291"/>
		</contour>
	</outline>
</glyph>
<glyph name="ttho-khmer.post2" format="2">
	<advance width="318"/>
	<anchor x="0" y="732" name="top"/>
	<anchor x="220" y="732" name="topright"/>
	<outline>
		<contour>
			<point x="-415" y="-419" type="curve" smooth="yes"/>
			<point x="-415" y="-550" type="line"/>
			<point x="-260" y="-550" type="line"/>
			<point x="-260" y="-499" type="line"/>
			<point x="-305" y="-499" type="line"/>
			<point x="-305" y="-439" type="line"/>
			<point x="-301" y="-439" type="line"/>
			<point x="-232" y="-473" type="line"/>
			<point x="-163" y="-439" type="line"/>
			<point x="-159" y="-439" type="line"/>
			<point x="-159" y="-550" type="line"/>
			<point x="-49" y="-550" type="line"/>
			<point x="-49" y="-502" type="line"/>
			<point x="118" y="-550" type="line"/>
			<point x="220" y="-550" type="line"/>
			<point x="220" y="521" type="line"/>
			<point x="171" y="550"/>
			<point x="129" y="585"/>
			<point x="106" y="628" type="curve"/>
			<point x="228" y="628" type="line"/>
			<point x="260" y="732" type="line"/>
			<point x="62" y="732" type="line"/>
			<point x="22" y="635" type="line"/>
			<point x="29" y="596"/>
			<point x="64" y="543"/>
			<point x="98" y="514" type="curve"/>
			<point x="98" y="-482" type="line"/>
			<point x="-49" y="-438" type="line"/>
			<point x="-49" y="-419" type="line" smooth="yes"/>
			<point x="-49" y="-386"/>
			<point x="-65" y="-370"/>
			<point x="-98" y="-370" type="curve" smooth="yes"/>
			<point x="-151" y="-370" type="line"/>
			<point x="-232" y="-411" type="line"/>
			<point x="-313" y="-370" type="line"/>
			<point x="-366" y="-370" type="line" smooth="yes"/>
			<point x="-399" y="-370"/>
			<point x="-415" y="-386"/>
		</contour>
	</outline>
</glyph>
<glyph name="uMark-khmer.below2" format="2">
	<advance width="0"/>
	<anchor x="-100" y="-330" name="_bottomright"/>
	<outline>
		<contour>
			<point x="-206" y="-550" type="line"/>
			<point x="-100" y="-550" type="line"/>
			<point x="-100" y="-406" type="line" smooth="yes"/>
			<point x="-100" y="-382"/>
			<point x="-113" y="-370"/>
			<point x="-139" y="-370" type="curve" smooth="yes"/>
			<point x="-254" y="-370" type="line"/>
			<point x="-254" y="-436" type="line"/>
			<point x="-206" y="-436" type="line"/>
		</contour>
	</outline>
</glyph>
